<?xml version="1.0" encoding="utf-8"?><svg xmlns="http://www.w3.org/2000/svg" xmlns:xlink="http://www.w3.org/1999/xlink"><symbol viewBox="0 0 50 101" id="Left" xmlns="http://www.w3.org/2000/svg"><path opacity=".5" fill-rule="evenodd" clip-rule="evenodd" d="M0 100.194c27.614 0 50-22.43 50-50.097S27.614 0 0 0s-50 22.43-50 50.097c0 27.668 22.386 50.097 50 50.097z"/><path opacity=".5" d="M26 58.113l-8-8.016 8-8.015"/></symbol><symbol viewBox="0 0 51 101" id="Right" xmlns="http://www.w3.org/2000/svg"><path opacity=".5" fill-rule="evenodd" clip-rule="evenodd" d="M50 100.194c27.614 0 50-22.43 50-50.097S77.614 0 50 0 0 22.43 0 50.097c0 27.668 22.386 50.097 50 50.097z"/><path d="M24 58.113l8-8.016-8-8.015"/></symbol><symbol viewBox="0 0 30 30" id="ad" xmlns="http://www.w3.org/2000/svg"><path d="M12.073 4.429a.782.782 0 0 1 1.025 0L26.34 17.357a.806.806 0 0 1 0 1.036.891.891 0 0 1-.512.178.93.93 0 0 1-.549-.178l-.804-.786-4.28 2.679 1.682 1.642a.708.708 0 0 1 .22.536.706.706 0 0 1-.22.5l-5.634 5.5a.703.703 0 0 1-1.024 0l-3.11-3.035-2.232 1.392-2.89 2.786a.703.703 0 0 1-1.025 0L.55 24.321a.671.671 0 0 1 0-1l2.853-2.785L12.878 6.25l-.805-.786a.737.737 0 0 1 0-1.035zM2.085 23.82l4.39 4.286 1.903-1.857-4.39-4.286-1.903 1.857zm18.256-1.357l-4.61 4.465-2.377-2.322 5.597-3.5 1.39 1.357zM4.94 20.857l4.573 4.464 13.903-8.75-9.476-9.285-9 13.571zM20.927 8.821a.741.741 0 0 0 .549.215.74.74 0 0 0 .512-.215l4.134-4.035a.737.737 0 0 0 0-1.036.703.703 0 0 0-1.024 0l-4.171 4.036a.806.806 0 0 0 0 1.035zm-2.342-2.464h.256a.768.768 0 0 0 .696-.464l1.829-4.786a.745.745 0 0 0-.44-.928.748.748 0 0 0-.567.018.721.721 0 0 0-.383.41L18.183 5.43a.71.71 0 0 0 .402.928zm11.049 2.357a.72.72 0 0 0-.383-.41.748.748 0 0 0-.568-.018L23.78 10.07a.69.69 0 0 0-.418.354.664.664 0 0 0-.021.54.73.73 0 0 0 .695.5l.256-.072 4.902-1.75a.745.745 0 0 0 .44-.929z" fill-rule="evenodd" clip-rule="evenodd"/></symbol><symbol viewBox="0 0 34 34" id="button" xmlns="http://www.w3.org/2000/svg"><rect x=".5" y=".5" width="33" height="33" rx="7.5"/><path d="M18 26a9 9 0 1 0 0-18 9 9 0 0 0 0 18z"/><path fill-rule="evenodd" clip-rule="evenodd" d="M17.718 20.872a.374.374 0 0 0 .564 0l2.625-3a.374.374 0 0 0-.282-.622h-1.5v-4.875A.375.375 0 0 0 18.75 12h-1.5a.375.375 0 0 0-.375.375v4.875h-1.5a.375.375 0 0 0-.282.622l2.625 3z"/></symbol><symbol viewBox="0 0 33 25" id="car" xmlns="http://www.w3.org/2000/svg"><path fill-rule="evenodd" clip-rule="evenodd" d="M5.404.768a.376.376 0 0 0-.281.25L2.555 8.421v.01C1.61 9.28 1 10.567 1 12.073v2.903c0 1.687 1.06 3.056 2.163 3.72v3.9c0 .544.384 1.003.901 1.315.517.313 1.202.5 1.983.5.62 0 1.222-.198 1.69-.51.466-.314.833-.76.833-1.305v-2.903h16.22v2.903c0 .544.379.99.846 1.304a3.04 3.04 0 0 0 1.678.51c.781 0 1.477-.186 1.994-.499.514-.31.885-.764.89-1.304v-.011l.09-3.957A4.763 4.763 0 0 0 32 14.975v-2.902c0-1.501-.606-2.781-1.543-3.629-.002-.002.002-.01 0-.011v-.011l-2.569-7.405a.378.378 0 0 0-.349-.25H5.472a.531.531 0 0 0-.068 0zm.327.737h21.55l2.162 6.248a4.107 4.107 0 0 0-1.769-.397H11.341c.016-.123.011-.227.011-.33 0-.574-.312-1.083-.755-1.428a2.59 2.59 0 0 0-1.644-.533c-1.299.03-2.23.905-2.23 1.962 0 .102-.006.206.01.329H5.327c-.623 0-1.22.142-1.758.397l2.163-6.248zm3.244 4.24c.46-.01.893.143 1.206.386.312.243.495.568.495.896 0 .15-.012.267-.022.306H7.42a1.615 1.615 0 0 1-.023-.306c0-.656.556-1.258 1.577-1.281zm-3.65 2.336h22.35c1.962 0 3.604 1.625 3.604 3.992v2.902c0 1.67-.986 3.003-2.32 3.674-.39.2-.859.322-1.285.318H5.641c-1.09-.118-1.766-.568-2.441-1.104-.713-.538-1.48-1.616-1.48-2.888v-2.902c0-2.367 1.643-3.992 3.606-3.992zM3.885 19.07c.422.258.884.47 1.335.529.45.036 1.204.055 2.63.094v2.903c0 .181-.163.472-.507.703a2.44 2.44 0 0 1-1.295.386c-.661 0-1.227-.165-1.611-.397-.384-.232-.552-.51-.552-.692V19.07zm25.672.08l-.08 3.435v.011c0 .182-.156.46-.54.692-.384.232-.961.397-1.622.397a2.4 2.4 0 0 1-1.284-.386c-.344-.23-.518-.521-.518-.703v-2.902h2.162c.793-.019 1.086-.147 1.611-.397.093-.047.181-.096.27-.148z"/><path d="M5.404.768l.056.295.124-.024.07-.105-.25-.166zm-.281.25l.283.098.002-.007-.285-.092zM2.555 8.421l-.284-.099-.016.046v.048l.3.005zm0 .01l.2.224.102-.091-.003-.137-.3.005zm.608 10.263h.3v-.17l-.146-.087-.154.257zm.901 5.215l-.155.257.155-.257zm3.672-.01l.167.248-.167-.249zm.834-4.208v-.3h-.3v.3h.3zm16.22 0h.3v-.3h-.3v.3zm.846 4.207l-.168.25.168-.25zm3.672.011l-.155-.256.155.256zm.89-1.304l-.3-.003.3.003zm0-.011l-.3-.007v.007h.3zm.09-3.957l-.194-.23-.103.088-.003.135.3.007zm.169-10.194l-.214.21.006.007.007.006.2-.223zm0-.011l-.3-.005-.002.13.092.09.21-.215zm0-.011l.3-.005-.001-.048-.016-.046-.283.099zm-2.569-7.405l-.283.098.283-.098zm-.349-.25v.3h.002l-.002-.3zm-22.067 0l-.01.3h.01v-.3zm-.034 0l-.01.3.01.001h.01l-.01-.3zm-.034 0l-.01-.299-.154.005-.085.129.25.166zm.327.738v-.3h-.214l-.07.202.284.098zm21.55 0l.283-.098-.07-.202h-.214v.3zm2.162 6.248l-.129.27.647.308-.235-.677-.283.099zm-18.102-.397l-.298-.04-.044.34h.342v-.3zm-.744-1.758l-.184.237.184-.237zm-1.644-.533l-.007-.3.007.3zm-2.22 2.29v.3h.343l-.045-.338-.297.039zm-3.165.398l-.283-.099-.234.675.646-.305-.129-.271zm5.407-2.007v.3h.007l-.007-.3zm1.206.385l.184-.237-.184.237zm.473 1.202v.3h.233l.057-.226-.29-.074zm-3.233 0l-.291.074.057.226h.234v-.3zm1.554-1.587v-.3h-.007l.007.3zM28.96 18.649l-.135-.268-.003.001.138.267zm-1.285.318l.004-.3h-.004v.3zm-22.033 0l-.032.298.016.002h.016v-.3zM3.2 17.863l.186-.235-.006-.005-.18.24zm.684 1.206l.156-.256-.456-.28v.536h.3zm1.335.529l-.038.298h.014l.024-.298zm2.63.094h.3v-.291l-.292-.009-.008.3zm-.507 3.606l.167.25-.167-.25zm22.214-4.15h.3l-.6-.007.3.007zm-.08 3.436l-.3-.007v.002l.3.005zm0 .011h.3v-.004l-.3.004zm-.54.692l.155.257-.155-.257zm-2.906.011l.167-.249-.167.25zm-.518-3.605v-.3h-.3v.3h.3zm2.162 0v.3h.007l-.007-.3zm1.611-.397l.13.27.005-.002-.135-.268zm.27-.148l.151.26.15-.087v-.173h-.3zM5.35.473a.676.676 0 0 0-.512.452l.571.184a.077.077 0 0 1 .052-.046L5.35.473zm-.51.446L2.271 8.323l.567.197 2.568-7.404L4.84.919zM2.255 8.417v.02l.6-.009v-.002l-.6-.009zm.099-.207C1.345 9.116.7 10.483.7 12.073h.6c0-1.425.576-2.628 1.455-3.417l-.401-.446zM.7 12.073v2.902h.6v-2.902H.7zm0 2.902c0 1.814 1.136 3.271 2.308 3.977l.31-.515c-1.035-.62-2.018-1.902-2.018-3.461H.7zm2.163 3.72v3.9h.6v-3.9h-.6zm0 3.9c0 .696.488 1.235 1.046 1.572l.31-.513c-.476-.288-.756-.666-.756-1.059h-.6zm1.046 1.572c.57.345 1.31.542 2.138.542v-.6c-.735 0-1.364-.175-1.828-.455l-.31.513zm2.138.542c.681 0 1.341-.215 1.856-.56l-.334-.499a2.78 2.78 0 0 1-1.522.46v.6zm1.856-.56c.504-.339.967-.865.967-1.554h-.6c0 .4-.27.766-.701 1.055l.334.498zm.967-1.554v-2.903h-.6v2.903h.6zm-.3-2.603h16.22v-.6H8.57v.6zm15.92-.3v2.903h.6v-2.903h-.6zm0 2.903c0 .693.478 1.218.978 1.553l.335-.498c-.434-.291-.712-.659-.712-1.055h-.6zm.978 1.553a3.34 3.34 0 0 0 1.846.561v-.6a2.74 2.74 0 0 1-1.511-.459l-.335.498zm1.846.561c.826 0 1.577-.197 2.149-.542l-.31-.513c-.463.28-1.103.455-1.839.455v.6zm2.149-.542c.558-.337 1.028-.871 1.035-1.558l-.6-.005c-.004.392-.276.766-.745 1.05l.31.513zm1.035-1.558V22.595h-.6v.009l.6.005zm0-.007l.09-3.957-.6-.014-.09 3.957.6.014zm-.016-3.735c1.086-.92 1.818-2.288 1.818-3.892h-.6a4.463 4.463 0 0 1-1.606 3.434l.388.458zm1.818-3.892v-2.902h-.6v2.902h.6zm0-2.902c0-1.584-.64-2.945-1.642-3.851l-.402.445c.872.79 1.444 1.988 1.444 3.406h.6zm-1.63-3.84a.301.301 0 0 1 .083.253l-.001.006s0 .001 0 0V8.49l.002-.007.001-.012.002-.02a.314.314 0 0 0-.028-.145.3.3 0 0 0-.063-.088l-.419.43a.3.3 0 0 1-.088-.247l.002-.01v-.006s0-.001 0 0v.002l-.001.007a.296.296 0 0 0-.002.013l-.001.019a.308.308 0 0 0 .086.229l.428-.421zm.087.204v-.02l-.6.009v.002l.6.01zm-.017-.114L28.172.92l-.567.197 2.568 7.404.567-.197zM28.172.92a.678.678 0 0 0-.634-.452l.003.6c.022 0 .055.022.064.047l.567-.195zM27.54.468H5.472v.6h22.067v-.6zm-22.057 0a.83.83 0 0 0-.053 0l.019.6h.014l.02-.6zm-.034 0a.83.83 0 0 0-.053 0l.019.6h.015l.019-.6zm-.293.134l.5.332-.5-.332zm.576 1.203H27.28v-.6H5.731v.6zm21.266-.202l2.163 6.248.566-.197-2.162-6.247-.567.196zm2.575 5.879a4.407 4.407 0 0 0-1.898-.426v.6c.582 0 1.14.13 1.64.367l.258-.541zm-1.898-.426H11.341v.6h16.333v-.6zm-16.036.339c.02-.148.014-.28.014-.368h-.6c0 .117.004.193-.009.29l.595.078zm.014-.368c0-.688-.372-1.278-.87-1.665l-.369.473c.388.302.64.73.64 1.192h.6zm-.87-1.665a2.89 2.89 0 0 0-1.836-.597l.014.6a2.291 2.291 0 0 1 1.453.47l.369-.473zm-1.836-.597c-1.424.033-2.524 1.007-2.524 2.262h.6c0-.858.764-1.635 1.938-1.662l-.014-.6zM6.422 7.027c0 .087-.005.22.014.368l.595-.078c-.013-.097-.009-.173-.009-.29h-.6zm.312.029H5.326v.6h1.408v-.6zm-1.408 0a4.4 4.4 0 0 0-1.886.425l.257.543a3.8 3.8 0 0 1 1.629-.368v-.6zm-1.474.795l2.163-6.248-.567-.196-2.163 6.247.567.197zm5.13-1.805c.392-.01.757.122 1.014.322l.369-.474a2.212 2.212 0 0 0-1.397-.448l.014.6zm1.014.322c.26.201.38.446.38.659h.6c0-.443-.245-.848-.611-1.133l-.369.474zm.38.659c0 .067-.003.126-.006.17-.004.05-.009.068-.007.062l.581.148c.02-.077.032-.224.032-.38h-.6zm.278.006H7.421v.6h3.233v-.6zm-2.942.226c.001.006-.003-.012-.007-.062a2.09 2.09 0 0 1-.007-.17h-.6c0 .156.013.303.032.38l.582-.148zm-.014-.232c0-.453.383-.96 1.284-.981l-.014-.6c-1.141.026-1.87.723-1.87 1.58h.6zm1.277-.981v-.6.6zM5.325 8.38h22.35v-.6H5.324v.6zm22.35 0c1.777 0 3.304 1.47 3.304 3.692h.6c0-2.514-1.758-4.292-3.905-4.292v.6zm3.304 3.692v2.902h.6v-2.902h-.6zm0 2.902c0 1.542-.909 2.779-2.155 3.406l.27.536c1.422-.716 2.485-2.145 2.485-3.942h-.6zm-2.157 3.407a2.549 2.549 0 0 1-1.144.285l-.007.6c.48.005.996-.13 1.425-.35l-.274-.535zm-1.148.285H5.641v.6h22.033v-.6zm-22 .001c-1.009-.108-1.63-.518-2.288-1.04l-.373.47c.693.55 1.422 1.04 2.596 1.167l.065-.597zM3.38 17.623c-.657-.496-1.36-1.492-1.36-2.648h-.6c0 1.389.831 2.547 1.599 3.127l.361-.479zm-1.36-2.648v-2.902h-.6v2.902h.6zm0-2.902c0-2.221 1.528-3.692 3.306-3.692v-.6c-2.147 0-3.905 1.778-3.905 4.292h.6zM5.327 7.78v.6-.6zm-1.6 11.544c.437.269.942.506 1.454.571l.076-.595c-.39-.05-.81-.238-1.217-.487l-.313.512zm1.468.573c.46.037 1.226.056 2.645.095l.017-.6c-1.433-.04-2.175-.057-2.614-.093l-.048.598zm2.354-.205v2.903h.6v-2.903h-.6zm0 2.903c0 .01-.01.07-.073.165a1.1 1.1 0 0 1-.301.289l.334.498c.202-.135.357-.292.464-.451a.926.926 0 0 0 .176-.5h-.6zm-.374.454a2.14 2.14 0 0 1-1.128.335v.6c.519 0 1.068-.172 1.462-.437l-.334-.498zm-1.128.335c-.615 0-1.126-.154-1.456-.354l-.31.514c.437.264 1.058.44 1.766.44v-.6zM4.59 23.03a1.158 1.158 0 0 1-.334-.287.476.476 0 0 1-.072-.137l-.001-.01h-.6a.88.88 0 0 0 .19.505c.118.157.287.31.507.443l.31-.514zm-.407-.435V19.07h-.6v3.526h.6zm25.072-3.454l-.08 3.436.6.014.08-3.436-.6-.014zm-.08 3.439v.02l.6-.01v-.002l-.6-.009zm0 .015c0 .031-.054.229-.395.435l.31.514c.427-.258.686-.617.686-.949h-.6zm-.395.435c-.33.2-.852.354-1.467.354v.6c.706 0 1.34-.176 1.777-.44l-.31-.514zm-1.467.354a2.1 2.1 0 0 1-1.117-.335l-.334.498c.393.264.93.437 1.451.437v-.6zm-1.117-.335a1.171 1.171 0 0 1-.31-.292.557.557 0 0 1-.063-.116c-.012-.031-.012-.046-.012-.046h-.6c0 .176.079.354.184.505.11.157.267.313.467.447l.334-.498zm-.385-.454v-2.902h-.6v2.902h.6zm-.3-2.602h2.163v-.6H25.512v.6zm2.17 0c.411-.01.709-.048.978-.122.266-.074.493-.18.755-.305l-.259-.541c-.264.126-.447.21-.656.267-.206.057-.452.092-.832.1l.013.6zm1.738-.43a5.31 5.31 0 0 0 .286-.155l-.301-.519c-.086.05-.17.096-.255.139l.27.536zm.436-.415h-.6.6z"/><path fill-rule="evenodd" clip-rule="evenodd" d="M10.766 12.753a.415.415 0 0 0 .08.828h11.68a.412.412 0 0 0 .409-.414.413.413 0 0 0-.409-.414h-11.68a.416.416 0 0 0-.08 0zM6.88 10.64c-1.404.015-2.5 1.265-2.523 2.54 0 1.632 1.154 2.726 2.475 2.726 1.73 0 2.571-1.315 2.571-2.727-.093-1.498-1.21-2.52-2.523-2.54zm0 .725c1.079.064 1.79.813 1.802 1.814-.021 1.165-.62 2.001-1.85 2.001-.84 0-1.754-.73-1.754-2 0-1.007.877-1.796 1.802-1.815z"/><path d="M6.88 10.64l.005-.3h-.008l.003.3zm-2.523 2.54l-.3-.006v.005h.3zm5.046 0h.3v-.02l-.3.02zm-.72 0l.3.005v-.01l-.3.004zm-1.806-2.84c-1.581.017-2.795 1.413-2.82 2.834l.6.01c.02-1.126 1-2.231 2.226-2.244l-.006-.6zm-2.82 2.84c0 1.783 1.274 3.026 2.775 3.026v-.6c-1.142 0-2.175-.945-2.175-2.427h-.6zm2.775 3.026c.949 0 1.677-.364 2.164-.94.48-.57.707-1.325.707-2.087h-.6c0 .65-.193 1.259-.566 1.7-.366.433-.923.727-1.705.727v.6zm2.87-3.045c-.101-1.649-1.341-2.8-2.817-2.821l-.01.6c1.15.017 2.145.909 2.229 2.258l.599-.037zm-2.84-1.496c.93.055 1.51.682 1.52 1.518l.6-.007c-.015-1.166-.856-2.037-2.084-2.11l-.036.599zm1.52 1.509c-.01.536-.152.96-.399 1.247-.24.278-.61.46-1.15.46v.6c.687 0 1.233-.238 1.604-.668.366-.424.534-1 .545-1.628l-.6-.011zm-1.55 1.706c-.669 0-1.454-.59-1.454-1.7h-.6c0 1.428 1.04 2.3 2.054 2.3v-.6zm-1.454-1.7c0-.83.732-1.5 1.508-1.515l-.012-.6c-1.075.022-2.096.931-2.096 2.114h.6z"/><path fill-rule="evenodd" clip-rule="evenodd" d="M26.379 10.64c-1.404.015-2.5 1.265-2.523 2.54 0 1.632 1.153 2.726 2.475 2.726 1.73 0 2.571-1.315 2.571-2.727-.093-1.498-1.21-2.52-2.523-2.54zm0 .725c1.078.064 1.79.813 1.802 1.814-.021 1.165-.62 2.001-1.85 2.001-.841 0-1.754-.73-1.754-2 0-1.007.876-1.796 1.802-1.815z"/><path d="M26.379 10.64l.004-.3h-.007l.003.3zm-2.523 2.54l-.3-.006v.005h.3zm5.046 0h.3v-.02l-.3.02zm-2.523-1.815l.018-.3h-.024l.006.3zm1.802 1.814l.3.006v-.01l-.3.004zm-1.805-2.84c-1.581.018-2.795 1.414-2.82 2.835l.6.01c.02-1.126 1-2.231 2.226-2.244l-.006-.6zm-2.82 2.84c0 1.784 1.273 3.027 2.775 3.027v-.6c-1.142 0-2.175-.945-2.175-2.427h-.6zm2.775 3.027c.949 0 1.677-.364 2.164-.94.48-.57.707-1.325.707-2.087h-.6c0 .65-.194 1.259-.566 1.7-.366.433-.923.727-1.705.727v.6zm2.87-3.045c-.102-1.649-1.341-2.8-2.818-2.821l-.009.6c1.15.017 2.145.909 2.229 2.258l.599-.037zm-2.84-1.496c.929.055 1.51.682 1.52 1.518l.6-.007c-.015-1.166-.856-2.037-2.084-2.11l-.036.599zm1.52 1.509c-.01.536-.152.96-.399 1.247-.24.278-.61.46-1.15.46v.6c.687 0 1.232-.238 1.604-.668.366-.424.534-1 .545-1.628l-.6-.011zm-1.55 1.706c-.669 0-1.454-.59-1.454-1.7h-.6c0 1.428 1.04 2.3 2.054 2.3v-.6zm-1.454-1.7c0-.83.732-1.5 1.508-1.515l-.012-.6c-1.075.022-2.096.931-2.096 2.114h.6z"/></symbol><symbol viewBox="0 0 34 34" id="check" xmlns="http://www.w3.org/2000/svg"><path fill-rule="evenodd" clip-rule="evenodd" d="M34 17c0 9.389-7.611 17-17 17S0 26.389 0 17 7.611 0 17 0s17 7.611 17 17zm-10.994-6.303l3.278 3.278-8.196 8.196-3.278 3.278-3.279-3.278-3.278-3.278 3.278-3.279 3.279 3.279 8.196-8.196z"/></symbol><symbol viewBox="0 0 12 12" id="clock" xmlns="http://www.w3.org/2000/svg"><path fill-rule="evenodd" clip-rule="evenodd" d="M10.94 6A4.944 4.944 0 0 1 6 10.94 4.944 4.944 0 0 1 1.06 6 4.944 4.944 0 0 1 6 1.06 4.944 4.944 0 0 1 10.94 6zm-9.642-.12h.416c.072 0 .12.049.12.12s-.048.119-.12.119h-.416a4.722 4.722 0 0 0 4.583 4.583v-.416c0-.072.048-.12.119-.12s.119.048.119.12v.416a4.722 4.722 0 0 0 4.583-4.583h-.416c-.072 0-.12-.048-.12-.119s.048-.12.12-.12h.416A4.722 4.722 0 0 0 6.12 1.299v.416c0 .072-.048.12-.119.12s-.119-.048-.119-.12v-.416A4.722 4.722 0 0 0 1.298 5.88z"/><path d="M1.298 5.88l-.1-.002-.003.103h.103v-.1zm0 .239v-.1h-.103l.003.103.1-.003zm4.583 4.583l-.003.1.103.003v-.103h-.1zm.238 0h-.1v.103l.103-.003-.003-.1zm4.583-4.583l.1.003.003-.103h-.103v.1zm0-.238v.1h.103l-.003-.103-.1.003zM6.12 1.298l.003-.1-.103-.003v.103h.1zm-.238 0h.1v-.103l-.103.003.003.1zM6 11.04A5.043 5.043 0 0 0 11.04 6h-.2c0 2.67-2.169 4.84-4.84 4.84v.2zM.96 6A5.043 5.043 0 0 0 6 11.04v-.2A4.844 4.844 0 0 1 1.16 6h-.2zM6 .96A5.044 5.044 0 0 0 .96 6h.2A4.843 4.843 0 0 1 6 1.16v-.2zM11.04 6A5.043 5.043 0 0 0 6 .96v.2A4.843 4.843 0 0 1 10.84 6h.2zm-9.326-.22h-.416v.2h.416v-.2zm.22.22a.219.219 0 0 0-.063-.157.219.219 0 0 0-.157-.062v.2a.03.03 0 0 1 .013.002l.003.001.001.003A.03.03 0 0 1 1.733 6h.2zm-.22.219c.059 0 .115-.02.157-.062A.219.219 0 0 0 1.933 6h-.2c0 .007 0 .01-.002.013a.008.008 0 0 1-.001.003l-.003.001a.036.036 0 0 1-.013.002v.2zm-.416 0h.416v-.2h-.416v.2zm4.586 4.383a4.622 4.622 0 0 1-4.486-4.486l-.2.006a4.822 4.822 0 0 0 4.68 4.68l.006-.2zm-.103-.316v.416h.2v-.416h-.2zm.219-.22a.219.219 0 0 0-.157.063.219.219 0 0 0-.062.157h.2a.03.03 0 0 1 .002-.013l.001-.003.003-.002a.039.039 0 0 1 .013 0v-.2zm.22.22a.219.219 0 0 0-.063-.157.219.219 0 0 0-.157-.062v.2c.007 0 .01 0 .013.002l.003.001.001.003c0 .002.002.006.002.013h.2zm0 .416v-.416h-.2v.416h.2zm4.382-4.586a4.622 4.622 0 0 1-4.486 4.486l.006.2a4.821 4.821 0 0 0 4.68-4.68l-.2-.006zm-.316.103h.416v-.2h-.416v.2zM10.066 6c0 .058.02.115.063.157a.219.219 0 0 0 .157.062v-.2a.036.036 0 0 1-.013-.002l-.003-.001-.001-.003A.036.036 0 0 1 10.267 6h-.2zm.22-.22a.219.219 0 0 0-.157.063.219.219 0 0 0-.062.157h.2c0-.007 0-.01.002-.013l.001-.003.003-.001a.036.036 0 0 1 .013-.002v-.2zm.416 0h-.416v.2h.416v-.2zM6.116 1.399a4.622 4.622 0 0 1 4.486 4.486l.2-.006a4.822 4.822 0 0 0-4.68-4.68l-.006.2zm.103.316v-.416h-.2v.416h.2zM6 1.934c.058 0 .115-.02.157-.063a.219.219 0 0 0 .062-.157h-.2a.03.03 0 0 1-.002.013.008.008 0 0 1-.001.003l-.003.001A.036.036 0 0 1 6 1.733v.2zm-.22-.22c0 .059.02.115.063.157A.219.219 0 0 0 6 1.933v-.2a.036.036 0 0 1-.013-.002.008.008 0 0 1-.003-.001l-.001-.003a.036.036 0 0 1-.002-.013h-.2zm0-.416v.416h.2v-.416h-.2zM1.399 5.884a4.622 4.622 0 0 1 4.486-4.486l-.006-.2a4.822 4.822 0 0 0-4.68 4.68l.2.006z"/><path fill-rule="evenodd" clip-rule="evenodd" d="M6.417 5.762c0 .226-.19.417-.417.417a.44.44 0 0 1-.429-.417c0-.179.131-.345.298-.393V3.024c0-.072.048-.12.12-.12.07 0 .118.048.118.12v2.345a.17.17 0 0 1 .072.024l.666-.833c.036-.06.12-.06.167-.024.06.035.06.119.024.166l-.679.858c.036.06.06.13.06.202zm-.238 0A.183.183 0 0 0 6 5.583a.183.183 0 0 0-.179.179c0 .095.084.179.179.179a.183.183 0 0 0 .179-.18z"/><path d="M5.571 5.762h-.1v.005l.1-.005zm.298-.393l.028.096.072-.02v-.076h-.1zm.238 0h-.1v.1h.1v-.1zm.072.024l-.045.09.072.035.05-.063-.077-.062zm.666-.833l.079.063.007-.012-.086-.051zm.167-.024l-.06.08.008.005.052-.085zm.024.166l.078.063.002-.003-.08-.06zm-.679.858l-.078-.063-.043.055.035.059.086-.051zM6 6.279a.522.522 0 0 0 .517-.517h-.2A.322.322 0 0 1 6 6.079v.2zm-.528-.512A.54.54 0 0 0 6 6.28v-.2a.34.34 0 0 1-.329-.322l-.2.01zm.37-.494a.522.522 0 0 0-.37.489h.2c0-.133.1-.261.225-.297l-.055-.192zm-.073-2.25V5.37h.2V3.024h-.2zm.22-.218a.219.219 0 0 0-.158.062.219.219 0 0 0-.062.157h.2a.03.03 0 0 1 .002-.013l.001-.003.003-.001a.036.036 0 0 1 .013-.002v-.2zm.218.219a.219.219 0 0 0-.062-.157.219.219 0 0 0-.157-.062v.2c.007 0 .01 0 .013.002l.003.001.001.003a.03.03 0 0 1 .002.013h.2zm0 2.345V3.024h-.2v2.345h.2zm.016-.066c-.018-.009-.064-.034-.116-.034v.2c-.004 0-.005-.001 0 .001a.3.3 0 0 1 .027.012l.09-.179zm.544-.806L6.1 5.33l.157.125.666-.833-.156-.125zm.305-.041a.23.23 0 0 0-.157-.044.2.2 0 0 0-.156.096l.172.103-.001.001h.004a.032.032 0 0 1 .018.004l.12-.16zm.044.306a.23.23 0 0 0 .043-.157.2.2 0 0 0-.096-.155l-.103.171v.003a.032.032 0 0 1-.004.018l.16.12zm-.68.86l.678-.858-.157-.124-.678.857.157.125zm.08.14a.501.501 0 0 0-.073-.254l-.172.103a.302.302 0 0 1 .046.15h.2zM6 5.683c.04 0 .079.039.079.079h.2A.283.283 0 0 0 6 5.483v.2zm-.079.079c0-.04.039-.079.079-.079v-.2a.283.283 0 0 0-.279.279h.2zM6 5.84a.083.083 0 0 1-.079-.08h-.2c0 .151.129.28.279.28v-.2zm.079-.08c0 .04-.039.08-.079.08v.2c.15 0 .279-.129.279-.28h-.2z"/></symbol><symbol viewBox="0 0 26 26" id="cup" xmlns="http://www.w3.org/2000/svg"><path fill-rule="evenodd" clip-rule="evenodd" d="M19.986 12.943a4.393 4.393 0 0 0 4.17-3.115l.788-2.639a1.39 1.39 0 0 0-.222-1.23 1.396 1.396 0 0 0-1.123-.557h-3.395V1.168a.279.279 0 0 0-.28-.278H6.07a.279.279 0 0 0-.279.278v4.234H2.396a1.39 1.39 0 0 0-1.336 1.79l.778 2.636a4.393 4.393 0 0 0 4.17 3.115 7.192 7.192 0 0 0 6.71 5.342v6.048H6.896a.279.279 0 1 0 0 .557h12.203a.279.279 0 1 0 0-.557h-5.823v-6.048a7.192 7.192 0 0 0 6.71-5.342zm3.613-6.984a.838.838 0 0 1 .8 1.085l-.8 2.625a3.832 3.832 0 0 1-3.507 2.712 6.96 6.96 0 0 0 .112-1.161V5.959h3.395zm-3.953-.523v-3.99H6.349v3.99h13.297zM2.396 9.669l-.801-2.625a.834.834 0 0 1 .8-1.085h3.396v5.26c0 .392.034.782.1 1.167A3.832 3.832 0 0 1 2.396 9.67zm3.953-3.677v5.228h-.003c.074 3.611 3.03 6.5 6.65 6.5 3.62 0 6.575-2.889 6.65-6.5V5.992H6.349z"/><path d="M24.157 9.828l.383.116v-.002l-.383-.114zm-4.171 3.115l-.003-.4-.306.002-.078.296.387.102zm4.958-5.754l.383.115-.383-.115zm-1.345-1.787v.4h.002l-.002-.4zm-3.395 0h-.4v.4h.4v-.4zm-14.413 0v.4h.4v-.4h-.4zm-3.395 0v-.4.4zm-1.119.56l.32.24-.32-.24zm-.218 1.23l.384-.113v-.002l-.384.115zm.779 2.636l-.384.113.001.003.383-.116zm4.17 3.115l.387-.102-.078-.296-.305-.002-.003.4zm6.71 5.342h.4v-.387l-.386-.013-.014.4zm0 6.048v.4h.4v-.4h-.4zm.558 0h-.4v.4h.4v-.4zm0-6.048l-.013-.4-.387.013v.387h.4zm11-11.986l-.323.237.322-.237zm-.677-.34v.4h.001l-.001-.4zm.8 1.085l-.38-.12-.002.004.383.116zm-.8 2.625l-.383-.116.383.116zm-3.507 2.712l-.393-.072-.09.492.5-.02-.017-.4zm.112-1.161l.4.005v-.005h-.4zm0-5.261v-.4h-.4v.4h.4zm-.558-4.512h.4v-.4h-.4v.4zm0 3.989v.4h.4v-.4h-.4zM6.349 1.446v-.4h-.4v.4h.4zm0 3.99h-.4v.4h.4v-.4zM1.595 7.044l.383-.116-.001-.004-.382.12zm.8 2.625l.384-.115v-.001l-.383.116zM1.72 6.3l-.322-.237.322.237zm.677-.34l-.001.4v-.4zm3.395 0h.4v-.4h-.4v.4zm0 5.26h-.4v.002l.4-.001zm.1 1.167l-.018.4.497.022-.084-.49-.395.068zm.458-1.166v.4h.4v-.4h-.4zm0-5.228v-.4h-.4v.4h.4zm-.003 5.228v-.4h-.408l.008.408.4-.008zm13.3 0l.4.008v-.008h-.4zm0-5.228h.4v-.4h-.4v.4zm4.128 3.72a3.993 3.993 0 0 1-3.791 2.83l.006.8a4.793 4.793 0 0 0 4.55-3.398l-.765-.232zm.786-2.637l-.786 2.639.766.228.787-2.638-.767-.229zm-.158-.876a.99.99 0 0 1 .158.876l.767.228a1.79 1.79 0 0 0-.286-1.585l-.639.48zm-.801-.397a.996.996 0 0 1 .801.397l.64-.481a1.796 1.796 0 0 0-1.445-.716l.004.8zm-3.397 0H23.6v-.8h-3.395v.8zm-.4-4.634v4.234h.8V1.168h-.8zm.12.122a.121.121 0 0 1-.12-.122h.8a.679.679 0 0 0-.68-.678v.8zm-13.854 0h13.855v-.8H6.07v.8zm.121-.122a.121.121 0 0 1-.121.122v-.8a.679.679 0 0 0-.679.678h.8zm0 4.234V1.168h-.8v4.234h.8zm-3.795.4H5.79v-.8H2.396v.8zm-.798.4a.996.996 0 0 1 .798-.4v-.8c-.567 0-1.1.267-1.44.721l.642.479zm-.155.875a.99.99 0 0 1 .155-.875l-.641-.479a1.79 1.79 0 0 0-.28 1.584l.766-.23zm.778 2.638L1.444 7.08l-.767.226.778 2.636.767-.226zm3.79 2.828a3.993 3.993 0 0 1-3.79-2.831l-.766.232a4.793 4.793 0 0 0 4.55 3.399l.007-.8zm6.721 5.342a6.792 6.792 0 0 1-6.337-5.045l-.773.205a7.592 7.592 0 0 0 7.083 5.64l.027-.8zm.386 6.448v-6.048h-.8v6.048h.8zm-6.222.4h5.822v-.8H6.896v.8zm.12-.121a.121.121 0 0 1-.12.121v-.8a.679.679 0 0 0-.68.679h.8zm-.12-.122a.12.12 0 0 1 .12.122h-.8a.68.68 0 0 0 .68.678v-.8zm12.203 0H6.896v.8h12.203v-.8zm-.121.122c0-.068.055-.122.12-.122v.8a.679.679 0 0 0 .68-.678h-.8zm.12.121a.121.121 0 0 1-.12-.121h.8a.679.679 0 0 0-.68-.679v.8zm-5.822 0H19.1v-.8h-5.823v.8zm-.4-6.448v6.048h.8v-6.048h-.8zM19.6 12.84a6.792 6.792 0 0 1-6.336 5.044l.027.8a7.592 7.592 0 0 0 7.083-5.64l-.774-.204zm4.998-6.78a1.238 1.238 0 0 0-1-.502l.003.8c.14 0 .271.066.353.177l.644-.474zm.184 1.104c.119-.376.05-.786-.184-1.103l-.644.474a.434.434 0 0 1 .065.388l.763.24zm-.8 2.621l.801-2.625-.765-.233-.8 2.625.765.233zM20.11 12.78a4.232 4.232 0 0 0 3.873-2.994l-.766-.233a3.432 3.432 0 0 1-3.14 2.428l.033.8zm-.305-1.565c-.005.367-.04.733-.105 1.094l.787.143c.073-.405.113-.816.118-1.227l-.8-.01zm0-5.256v5.26h.8V5.96h-.8zm3.795-.4h-3.395v.8H23.6v-.8zm-4.353-4.112v3.989h.8v-3.99h-.8zm-12.897.4h13.297v-.8H6.349v.8zm.4 3.589v-3.99h-.8v3.99h.8zm12.897-.4H6.349v.8h13.297v-.8zM1.212 7.16l.801 2.625.765-.233-.8-2.625-.766.233zm.185-1.1a1.234 1.234 0 0 0-.183 1.104l.763-.24a.434.434 0 0 1 .064-.389l-.644-.474zm1-.502a1.238 1.238 0 0 0-1 .503l.644.474a.438.438 0 0 1 .354-.177l.002-.8zm3.394 0H2.396v.8H5.79v-.8zm.4 5.66V5.96h-.8v5.26h.8zm.095 1.1a6.571 6.571 0 0 1-.095-1.1l-.8.002c0 .413.036.825.106 1.233l.789-.136zM2.013 9.785a4.232 4.232 0 0 0 3.86 3l.037-.798a3.432 3.432 0 0 1-3.131-2.433l-.766.231zm4.736 1.435V5.992h-.8v5.228h.8zm-.403.4h.003v-.8h-.003v.8zm6.65 5.7c-3.403 0-6.18-2.716-6.25-6.108l-.8.016c.079 3.83 3.213 6.892 7.05 6.892v-.8zm6.25-6.108c-.07 3.392-2.847 6.108-6.25 6.108v.8c3.837 0 6.97-3.062 7.05-6.892l-.8-.016zm0-5.22v5.228h.8V5.992h-.8zm-12.897.4h13.297v-.8H6.349v.8z"/></symbol><symbol viewBox="0 0 30 42" id="doc" xmlns="http://www.w3.org/2000/svg"><mask id="aia" maskUnits="userSpaceOnUse" x="0" y="0" width="30" height="42"><path fill-rule="evenodd" clip-rule="evenodd" d="M.007.09h29.99v41.1H.007V.09z"/></mask><g mask="url(#aia)"><path fill-rule="evenodd" clip-rule="evenodd" d="M29.997 40.026V8.596h-5.149c-1.835 0-3.313-1.522-3.313-3.313V.09H1.165C.536.09 0 .627 0 1.254v38.772c0 .627.537 1.164 1.164 1.164h27.714c.627 0 1.12-.537 1.12-1.164zM9.715 21.938c-.268 1.388-1.164 2.418-2.596 2.642l-3.09.09c-.85 0-1.03-.359-1.03-1.165V17.64c0-.716.314-.985.986-.985.985 0 2.686-.09 3.537.134 2.06.538 2.641 3.134 2.193 5.15zm9.044-1.298c0 2.462-1.343 4.163-3.94 4.163-2.552 0-3.94-1.7-3.94-4.163s1.389-4.12 3.896-4.12c2.596-.044 3.984 1.613 3.984 4.12zm8.238 1.477c0 1.03-.85 1.97-1.835 2.418-1.03.448-2.597.358-3.582-.224-2.776-1.657-2.418-7.79 2.06-7.79 1.163 0 2.283.492 2.91 1.343 1.074 1.522-.224 2.104-.717 1.656-.447-.402-.627-1.7-2.149-1.7-2.328 0-2.507 3.133-1.925 4.476.582 1.388 2.194 1.478 3.044.896.985-.672.583-1.746 1.478-1.746.403-.045.716.268.716.671z"/></g><path fill-rule="evenodd" clip-rule="evenodd" d="M13.208 22.789c1.119 1.298 3.895.985 3.895-2.15 0-1.521-.672-2.82-2.328-2.82-2.552-.045-2.642 3.671-1.567 4.97zm-6.224.447c1.523-.537 1.433-3.492.896-4.387-.493-.806-1.209-.896-2.15-.896H4.657v5.463c.627-.045 1.791 0 2.328-.18zM23.46 5.283c0 .761.627 1.388 1.388 1.388h3.761L23.46 1.477v3.806z"/></symbol><symbol viewBox="0 0 32 30" id="event" xmlns="http://www.w3.org/2000/svg"><g fill-rule="evenodd" clip-rule="evenodd"><path d="M32 6.923c0-2.197-1.856-3.979-4.145-3.979H25.74V.796c0-.44-.371-.796-.83-.796-.457 0-.828.356-.828.796v2.148H7.917V.796c0-.44-.371-.796-.829-.796-.458 0-.829.356-.829.796v2.148H4.145C1.855 2.944 0 4.726 0 6.924V26.02a3.9 3.9 0 0 0 1.214 2.814A4.234 4.234 0 0 0 4.145 30h23.71C30.145 30 32 28.219 32 26.021V6.923zM4.145 4.536H6.26v1.512c0 .44.371.795.83.795.457 0 .828-.356.828-.795V4.536h16.166v1.512c0 .44.371.795.829.795.458 0 .829-.356.829-.795V4.536h2.114c1.373 0 2.487 1.069 2.487 2.387v2.944H1.658V6.923c0-1.318 1.114-2.387 2.487-2.387zm0 23.872h23.71c1.373 0 2.487-1.068 2.487-2.387V11.46H1.658v14.56c0 1.319 1.114 2.387 2.487 2.387z"/><path d="M22.55 16.203l-7.703 5.97-3.462-3.08a.956.956 0 0 0-1.131.07.694.694 0 0 0-.08.995l3.98 3.613c.17.153.406.236.65.229.204-.014.4-.08.562-.19l8.352-6.466c.34-.297.377-.769.086-1.103a1.001 1.001 0 0 0-1.255-.038z"/></g></symbol><symbol viewBox="0 0 26 26" id="facebook" xmlns="http://www.w3.org/2000/svg"><g fill-rule="evenodd" clip-rule="evenodd"><path d="M12.908 25.815c7.128 0 12.907-5.779 12.907-12.908C25.815 5.78 20.036 0 12.907 0 5.78 0 0 5.779 0 12.908c0 7.128 5.779 12.907 12.908 12.907z"/><path d="M16.152 13.413H13.85v8.438h-3.49v-8.438H8.7v-2.966h1.66V8.528c0-1.372.652-3.52 3.52-3.52l2.585.01v2.879H14.59c-.308 0-.74.153-.74.808v1.745h2.607l-.305 2.963z"/></g></symbol><symbol viewBox="0 0 12 14" id="flag" xmlns="http://www.w3.org/2000/svg"><path fill-rule="evenodd" clip-rule="evenodd" d="M6.045 0c3.274.03 6.185 2.922 5.94 6.463-.199 2.897-2.113 5.593-4.706 7.08-.547.314-1.116.608-1.763.371-.713-.26-1.348-.707-1.946-1.191C1.265 10.855-.415 7.977.09 4.963.543 2.257 3.033.047 5.929 0h.116zm-.074.475C2.978.503.287 3.11.504 6.397c.19 2.895 2.236 5.612 4.788 6.9.332.167.681.31 1.095.152.663-.253 1.257-.671 1.813-1.124 2.054-1.67 3.525-4.196 3.305-6.839C11.283 2.827 8.928.521 6.078.476H5.97zm.057 1.902c1.541.014 2.995 1.193 3.28 2.718.277 1.475-.593 3.087-1.995 3.674-1.558.654-3.57-.08-4.325-1.605-.778-1.574-.042-3.717 1.6-4.476a3.41 3.41 0 0 1 1.44-.311zm-.04.475c-1.329.013-2.569 1.03-2.812 2.33-.24 1.276.525 2.67 1.743 3.163 1.345.545 3.06-.105 3.69-1.421.813-1.699-.491-4.079-2.621-4.072z"/></symbol><symbol viewBox="0 0 30 30" id="information" xmlns="http://www.w3.org/2000/svg"><path fill-rule="evenodd" clip-rule="evenodd" d="M17.128 0a12.79 12.79 0 0 1 9.102 3.77A12.788 12.788 0 0 1 30 12.873c0 3.438-1.339 6.67-3.77 9.101a12.787 12.787 0 0 1-9.102 3.77 12.771 12.771 0 0 1-8.46-3.169L1.5 29.743a.876.876 0 0 1-1.243 0 .879.879 0 0 1 0-1.243l7.168-7.168a12.777 12.777 0 0 1-3.17-8.46c0-3.438 1.34-6.67 3.77-9.102A12.788 12.788 0 0 1 17.128 0zm0 23.987c2.968 0 5.76-1.156 7.859-3.255a11.04 11.04 0 0 0 3.255-7.86c0-2.968-1.156-5.76-3.255-7.859a11.04 11.04 0 0 0-7.86-3.255c-2.968 0-5.76 1.156-7.859 3.255a11.044 11.044 0 0 0-3.255 7.86c0 2.968 1.156 5.76 3.255 7.859a11.044 11.044 0 0 0 7.86 3.255z"/><path fill-rule="evenodd" clip-rule="evenodd" d="M10.081 12.873a7.054 7.054 0 0 1 7.046-7.047 7.054 7.054 0 0 1 7.047 7.047 7.055 7.055 0 0 1-7.047 7.046 7.054 7.054 0 0 1-7.046-7.046zm1.758 0a5.295 5.295 0 0 0 5.288 5.288 5.295 5.295 0 0 0 5.29-5.289 5.295 5.295 0 0 0-5.29-5.288 5.295 5.295 0 0 0-5.288 5.289z"/><path fill-rule="evenodd" clip-rule="evenodd" d="M17.127 12.073a.88.88 0 0 0-.878.88v2.839a.879.879 0 0 0 1.757 0v-2.84a.879.879 0 0 0-.879-.879zm0-2.999a.88.88 0 0 0-.878.88v.585a.879.879 0 0 0 1.757 0v-.586a.879.879 0 0 0-.879-.879z"/></symbol><symbol viewBox="0 0 23 25" id="libra" xmlns="http://www.w3.org/2000/svg"><path fill-rule="evenodd" clip-rule="evenodd" d="M2.2 13.937h4.644a.39.39 0 0 0 .388-.387V9.68a.39.39 0 0 1 .387-.387H14.2a.39.39 0 0 0 .387-.387V4.26a.39.39 0 0 0-.387-.387H6.844a5.039 5.039 0 0 0-5.031 5.032v4.644a.39.39 0 0 0 .387.387zm4.257-.775h-3.87V8.906a4.26 4.26 0 0 1 4.257-4.257h6.969v3.87H7.619A1.16 1.16 0 0 0 6.457 9.68v3.482z"/><path d="M2.587 13.162h-.25v.25h.25v-.25zm3.87 0v.25h.25v-.25h-.25zm7.356-8.513h.25v-.25h-.25v.25zm0 3.87v.25h.25v-.25h-.25zm-6.969 5.168H2.2v.5h4.644v-.5zm.138-.137a.14.14 0 0 1-.138.137v.5a.64.64 0 0 0 .638-.637h-.5zm0-3.87v3.87h.5V9.68h-.5zm.637-.637a.64.64 0 0 0-.637.637h.5a.14.14 0 0 1 .137-.137v-.5zm6.581 0H7.619v.5H14.2v-.5zm.137-.137a.14.14 0 0 1-.137.137v.5a.64.64 0 0 0 .637-.637h-.5zm0-4.645v4.645h.5V4.26h-.5zm-.137-.137a.14.14 0 0 1 .137.137h.5a.64.64 0 0 0-.637-.637v.5zm-7.356 0H14.2v-.5H6.844v.5zM2.063 8.906a4.789 4.789 0 0 1 4.781-4.782v-.5a5.289 5.289 0 0 0-5.281 5.282h.5zm0 4.644V8.906h-.5v4.644h.5zm.137.137a.14.14 0 0 1-.137-.137h-.5c0 .35.286.637.637.637v-.5zm.387-.275h3.87v-.5h-3.87v.5zm-.25-4.506v4.256h.5V8.906h-.5zm4.507-4.507a4.51 4.51 0 0 0-4.507 4.507h.5a4.01 4.01 0 0 1 4.007-4.007v-.5zm6.969 0H6.844v.5h6.969v-.5zm.25 4.12v-3.87h-.5v3.87h.5zm-6.444.25h6.194v-.5H7.619v.5zm-.912.911c0-.504.407-.912.912-.912v-.5c-.78 0-1.412.632-1.412 1.412h.5zm0 3.482V9.68h-.5v3.482h.5z"/><path fill-rule="evenodd" clip-rule="evenodd" d="M14.195 10.063h2.325c.212 0 .387-.17.387-.387V3.482a.39.39 0 0 0-.387-.388h-2.325a.39.39 0 0 0-.387.388v6.194a.39.39 0 0 0 .387.387zm1.937-.775h-1.55V3.87h1.55v5.42z"/><path d="M14.583 9.288h-.25v.25h.25v-.25zm1.55 0v.25h.25v-.25h-.25zm-1.55-5.419v-.25h-.25v.25h.25zm1.55 0h.25v-.25h-.25v.25zm.387 5.944h-2.325v.5h2.325v-.5zm.137-.137c0 .077-.06.137-.137.137v.5c.348 0 .637-.28.637-.637h-.5zm0-6.194v6.194h.5V3.482h-.5zm-.137-.138a.14.14 0 0 1 .137.138h.5a.64.64 0 0 0-.637-.638v.5zm-2.325 0h2.325v-.5h-2.325v.5zm-.137.138a.14.14 0 0 1 .137-.138v-.5a.64.64 0 0 0-.637.638h.5zm0 6.194V3.482h-.5v6.194h.5zm.137.137a.14.14 0 0 1-.137-.137h-.5c0 .35.287.637.637.637v-.5zm.388-.275h1.55v-.5h-1.55v.5zm-.25-5.669v5.42h.5v-5.42h-.5zm1.8-.25h-1.55v.5h1.55v-.5zm.25 5.67v-5.42h-.5v5.42h.5z"/><path fill-rule="evenodd" clip-rule="evenodd" d="M16.52 9.288h5.031c.218 0 .388-.17.388-.387V4.257a.39.39 0 0 0-.388-.388H16.52a.39.39 0 0 0-.388.388V8.9a.39.39 0 0 0 .388.387zm4.644-.77h-4.257v-3.87h4.257v3.87z"/><path d="M16.907 8.518h-.25v.25h.25v-.25zm4.257 0v.25h.25v-.25h-.25zm-4.257-3.87v-.25h-.25v.25h.25zm4.257 0h.25v-.25h-.25v.25zm.387 4.39H16.52v.5h5.031v-.5zm.138-.137a.134.134 0 0 1-.138.137v.5a.633.633 0 0 0 .638-.637h-.5zm0-4.644V8.9h.5V4.257h-.5zm-.138-.138a.14.14 0 0 1 .138.138h.5a.64.64 0 0 0-.638-.638v.5zm-5.031 0h5.031v-.5H16.52v.5zm-.138.138a.14.14 0 0 1 .138-.138v-.5a.64.64 0 0 0-.638.638h.5zm0 4.644V4.257h-.5V8.9h.5zm.138.137a.14.14 0 0 1-.138-.137h-.5c0 .35.287.637.638.637v-.5zm.387-.27h4.257v-.5h-4.257v.5zm-.25-4.12v3.87h.5v-3.87h-.5zm4.507-.25h-4.257v.5h4.257v-.5zm.25 4.12v-3.87h-.5v3.87h.5z"/><path fill-rule="evenodd" clip-rule="evenodd" d="M14.583 3.87h1.55c.212 0 .387-.17.387-.388V.387A.39.39 0 0 0 16.132 0h-1.55a.39.39 0 0 0-.387.387v3.095a.39.39 0 0 0 .388.387zm1.162-.77h-.775V.774h.775v2.324z"/><path d="M14.97 3.1h-.25v.25h.25V3.1zm.775 0v.25h.25V3.1h-.25zM14.97.774v-.25h-.25v.25h.25zm.775 0h.25v-.25h-.25v.25zm.387 2.844h-1.55v.5h1.55v-.5zm.138-.137a.136.136 0 0 1-.138.137v.5c.349 0 .638-.28.638-.637h-.5zm0-3.095v3.095h.5V.387h-.5zM16.132.25a.14.14 0 0 1 .138.137h.5a.64.64 0 0 0-.638-.637v.5zm-1.55 0h1.55v-.5h-1.55v.5zm-.137.137a.14.14 0 0 1 .138-.137v-.5a.64.64 0 0 0-.638.637h.5zm0 3.095V.387h-.5v3.095h.5zm.138.137a.14.14 0 0 1-.138-.137h-.5c0 .35.287.637.638.637v-.5zm.387-.27h.775v-.5h-.775v.5zM14.72.775v2.324h.5V.775h-.5zm1.025-.25h-.775v.5h.775v-.5zm.25 2.574V.775h-.5v2.324h.5z"/><path fill-rule="evenodd" clip-rule="evenodd" d="M19.562 3.076c.08.014.156.023.236.023.752 0 1.366-.694 1.37-1.55 0-.944-.755-1.69-1.606-1.525l-3.5.69a.385.385 0 0 0-.312.377v.917c0 .184.132.34.311.378l3.501.69zm.147-.761l-3.19-.628v-.274l3.19-.629c.364-.075.685.307.685.766 0 .458-.326.836-.685.765z"/><path d="M19.562 3.076l-.048.245h.005l.043-.245zM21.17 1.55l.25.001V1.55h-.25zM19.562.024l-.047-.246h-.001l.048.246zm-3.5.69l.045.245h.003l-.05-.246zm0 1.672l-.052.244.003.001.048-.245zm.458-.7h-.25v.206l.201.04.049-.245zm3.189.629l.048-.245-.048.245zm-3.19-.902l-.048-.246-.201.04v.206h.25zm3.19-.629l.048.246.003-.001-.051-.245zm.09 2.065c-.06 0-.12-.007-.193-.02l-.087.493c.088.015.18.027.28.027v-.5zm1.12-1.3c-.005.748-.536 1.3-1.12 1.3v.5c.917 0 1.614-.836 1.62-1.798l-.5-.003zm-1.31-1.28c.659-.128 1.31.452 1.31 1.28h.5c0-1.06-.862-1.974-1.904-1.77l.095.49zm-3.5.69l3.502-.69-.097-.49-3.5.69.096.49zM16 1.09c0-.065.049-.12.108-.132l-.09-.491a.635.635 0 0 0-.517.623h.5zm0 .917V1.09h-.5v.917h.5zm.114.133A.139.139 0 0 1 16 2.008h-.5c0 .308.22.561.51.622l.103-.489zm3.498.69l-3.501-.69-.097.49 3.5.69.098-.49zm-3.14-.9l3.19.63.096-.491-3.189-.629-.097.49zm-.201-.518v.274h.5v-.274h-.5zm3.39-.874l-3.189.628.097.49 3.189-.627-.097-.491zm.984 1.01c0-.284-.1-.554-.268-.747-.17-.194-.428-.323-.718-.263l.102.49c.073-.015.158.01.24.103a.642.642 0 0 1 .144.418h.5zM19.66 2.56c.287.057.543-.071.713-.264.17-.191.27-.46.27-.746h-.5a.635.635 0 0 1-.144.415c-.083.094-.17.119-.242.105l-.097.49z"/><path fill-rule="evenodd" clip-rule="evenodd" d="M9.551 1.55c0 .855.614 1.55 1.37 1.55.08 0 .16-.01.237-.03l3.5-.689a.385.385 0 0 0 .312-.378v-.912a.389.389 0 0 0-.312-.378l-3.5-.69C10.308-.141 9.55.61 9.55 1.55zm.775 0c0-.42.274-.775.595-.775l.045.002a.6.6 0 0 0 .045.003l3.189.628v.279l-3.189.628c-.359.07-.685-.307-.685-.765z"/><path d="M11.158 3.07l-.049-.245-.012.003.06.243zm3.5-.689l-.045-.246h-.003l.048.246zm0-1.668L14.71.47h-.003l-.049.244zm-3.5-.69l.048-.245-.048.246zM11.01.78l.048-.246-.024-.004h-.024v.25zm3.189.628h.25v-.206l-.202-.04-.048.246zm0 .279l.048.245.202-.04v-.205h-.25zm-3.189.628l-.048-.245.048.245zm-.09.534c-.59 0-1.12-.553-1.12-1.3h-.5c0 .964.698 1.8 1.62 1.8v-.5zm.176-.02a.73.73 0 0 1-.176.02v.5c.1 0 .2-.011.297-.036l-.121-.485zm3.513-.693l-3.5.69.096.49 3.5-.69-.096-.49zm.11-.133a.135.135 0 0 1-.107.132l.09.492a.635.635 0 0 0 .517-.624h-.5zm0-.912v.912h.5v-.912h-.5zm-.113-.133a.139.139 0 0 1 .113.133h.5a.639.639 0 0 0-.51-.622l-.103.489zm-3.498-.69l3.501.69.097-.49-3.501-.69-.097.49zM9.801 1.55c0-.825.651-1.409 1.309-1.281l.095-.49c-1.043-.204-1.904.715-1.904 1.77h.5zm1.12-1.025a.786.786 0 0 0-.616.327 1.15 1.15 0 0 0-.229.698h.5a.65.65 0 0 1 .125-.393c.075-.096.156-.132.22-.132v-.5zm.064.003c-.013-.001-.038-.003-.064-.003v.5l.026.001.038-.498zm.026.002l-.026-.002-.038.498c.013.001.039.004.064.004v-.5zm3.237.633L11.06.534l-.096.49 3.189.63.096-.491zm.202.524v-.28h-.5v.28h.5zm-3.39.873l3.188-.628-.096-.49-3.19.628.097.49zm-.984-1.01c0 .286.101.555.27.746.17.193.427.32.713.264l-.096-.49c-.072.014-.16-.011-.242-.105a.635.635 0 0 1-.145-.415h-.5z"/><g><path fill-rule="evenodd" clip-rule="evenodd" d="M1.425 15.482H7.62c.212 0 .387-.17.387-.387v-1.55a.39.39 0 0 0-.387-.387H1.425a.39.39 0 0 0-.387.387v1.55a.39.39 0 0 0 .387.387zm5.806-.77H1.813v-.775H7.23v.775z"/><path d="M1.813 14.712h-.25v.25h.25v-.25zm5.418 0v.25h.25v-.25h-.25zm-5.418-.775v-.25h-.25v.25h.25zm5.418 0h.25v-.25h-.25v.25zm.388 1.295H1.425v.5H7.62v-.5zm.137-.137c0 .077-.06.137-.137.137v.5c.349 0 .637-.28.637-.637h-.5zm0-1.55v1.55h.5v-1.55h-.5zm-.137-.137a.14.14 0 0 1 .137.137h.5a.64.64 0 0 0-.637-.637v.5zm-6.194 0H7.62v-.5H1.425v.5zm-.137.137a.14.14 0 0 1 .137-.137v-.5a.64.64 0 0 0-.637.637h.5zm0 1.55v-1.55h-.5v1.55h.5zm.137.137a.14.14 0 0 1-.137-.137h-.5c0 .35.287.637.637.637v-.5zm.388-.27H7.23v-.5H1.813v.5zm-.25-1.025v.775h.5v-.775h-.5zm5.668-.25H1.813v.5H7.23v-.5zm.25 1.025v-.775h-.5v.775h.5z"/></g><g><path fill-rule="evenodd" clip-rule="evenodd" d="M1.038 20.905A3.099 3.099 0 0 0 4.132 24a3.1 3.1 0 0 0 3.1-3.095c0-1.61-2.533-4.237-2.821-4.53a.403.403 0 0 0-.553 0c-.288.297-2.82 2.924-2.82 4.53zm.77-.004c0-.973 1.488-2.788 2.324-3.695.836.907 2.325 2.722 2.325 3.695a2.329 2.329 0 0 1-2.325 2.324 2.329 2.329 0 0 1-2.324-2.324z"/><path d="M4.411 16.375l.178-.175-.001-.002-.177.177zm-.553 0l-.177-.177-.002.003.18.174zm.274.831l.184-.17-.184-.199-.184.2.184.17zm0 6.544a2.849 2.849 0 0 1-2.844-2.845h-.5c0 1.844 1.5 3.345 3.344 3.345v-.5zm2.85-2.845a2.85 2.85 0 0 1-2.85 2.845v.5a3.35 3.35 0 0 0 3.35-3.345h-.5zm-2.75-4.355c.141.143.838.864 1.497 1.746.33.44.646.916.88 1.376.235.465.372.89.372 1.233h.5c0-.46-.178-.969-.427-1.459-.25-.495-.585-.996-.924-1.45A19.036 19.036 0 0 0 4.59 16.2l-.357.35zm-.197.002c.049-.05.15-.05.2 0l.353-.354a.652.652 0 0 0-.907 0l.354.354zm-2.747 4.354c0-.344.137-.767.373-1.231.233-.46.55-.935.88-1.376a19.133 19.133 0 0 1 1.497-1.75l-.36-.348c-.145.15-.86.891-1.538 1.799-.34.453-.674.954-.925 1.449-.248.49-.427.996-.427 1.456h.5zm2.66-3.87a18.069 18.069 0 0 0-1.497 1.85 7.73 7.73 0 0 0-.623 1.047c-.158.333-.27.669-.27.968h.5c0-.188.074-.443.221-.753a7.35 7.35 0 0 1 .583-.977 17.568 17.568 0 0 1 1.454-1.795l-.368-.34zm2.759 3.865c0-.3-.112-.635-.27-.968a7.73 7.73 0 0 0-.623-1.046 18.068 18.068 0 0 0-1.498-1.85l-.368.339c.414.448.987 1.12 1.454 1.795.234.338.439.672.583.977.147.31.222.565.222.753h.5zm-2.575 2.574a2.579 2.579 0 0 0 2.575-2.574h-.5a2.079 2.079 0 0 1-2.075 2.074v.5zm-2.574-2.574a2.579 2.579 0 0 0 2.574 2.574v-.5a2.079 2.079 0 0 1-2.074-2.074h-.5z"/></g></symbol><symbol viewBox="0 0 22 20" id="like" xmlns="http://www.w3.org/2000/svg"><path fill-rule="evenodd" clip-rule="evenodd" d="M15.527 1c3.646.028 6.514 4.602 5.244 8.287-1.062 3.083-3.746 5.43-6.437 7.509a36.52 36.52 0 0 1-3.063 2.147s-.121.177-.542-.093c-3.24-2.1-6.377-4.525-8.453-7.733C1.056 9.23.514 6.785 1.54 4.512 2.495 2.397 4.78.819 7.106 1.026c1.45.128 2.815.84 3.944 1.795 0 0 .594-.475 1.16-.82C13.211 1.393 14.36.998 15.527 1zm-.06.649c-1.572.017-3.097.802-4.16 1.851 0 0-.282.164-.589-.109-1.558-1.368-3.723-2.21-5.742-1.356C2.5 3.082.866 6.047 1.93 9.012c.945 2.636 3.17 4.685 5.417 6.544a39.804 39.804 0 0 0 3.728 2.744c3.2-2.031 6.272-4.4 8.225-7.487.816-1.29 1.323-2.774 1.066-4.35-.403-2.469-2.349-4.795-4.84-4.814h-.058z"/><path d="M15.527 1l.001-.15V1zm5.244 8.287l.142.049-.142-.05zm-6.437 7.509l-.092-.119.092.119zm-3.063 2.147l-.08-.128-.026.017-.018.026.124.085zm-.542-.093l-.081.126.081-.126zm-8.453-7.733l-.126.082.126-.082zM1.54 4.512l-.136-.062.136.062zm5.566-3.486l-.013.149.013-.15zM11.05 2.82l-.096.114.094.08.096-.077-.094-.117zM12.21 2l-.078-.128.078.128zm3.257-.352l-.001-.15.001.15zM11.307 3.5l.076.13.016-.01.014-.013-.106-.107zm-.589-.109l.1-.112-.1.112zM4.976 2.035l.059.138-.059-.138zM1.93 9.012l-.141.05.141-.05zm5.417 6.544l-.096.116.096-.116zm3.728 2.744l-.081.126.08.053.082-.052-.08-.127zm8.225-7.487l-.127-.08.127.08zm1.066-4.35l-.148.025.148-.024zm-4.84-4.814v-.15.15zm.001-.499c1.758.014 3.345 1.125 4.34 2.702.994 1.577 1.38 3.594.763 5.386l.284.098c.652-1.894.24-4.006-.794-5.644C19.087 2.054 17.416.865 15.53.85l-.003.3zm5.103 8.088c-1.046 3.036-3.694 5.358-6.387 7.44l.184.237c2.689-2.079 5.408-4.45 6.487-7.58l-.284-.097zm-6.387 7.44a36.366 36.366 0 0 1-3.05 2.137l.158.255a36.623 36.623 0 0 0 3.076-2.155l-.184-.238zm-2.971 2.265l-.124-.085h.001v-.002l.002-.002a.05.05 0 0 1 .003-.003.042.042 0 0 1 .004-.005l.003-.003c.001 0-.005.004-.021.006-.034.004-.134 0-.329-.125l-.162.252c.226.145.397.187.529.17a.345.345 0 0 0 .196-.092.215.215 0 0 0 .018-.021l.002-.003.001-.001v-.001l-.123-.085zm-.46-.22c-3.236-2.095-6.351-4.507-8.409-7.687l-.252.163c2.093 3.235 5.252 5.674 8.498 7.777l.163-.252zm-8.409-7.687C1.201 9.178.678 6.787 1.677 4.574l-.273-.124C.35 6.782.91 9.282 2.15 11.2l.252-.163zm-.725-6.462C2.61 2.507 4.84.975 7.093 1.175l.026-.299C4.72.663 2.38 2.287 1.404 4.45l.273.124zm5.416-3.399c1.41.125 2.747.819 3.86 1.76l.194-.229C10.002 1.738 8.61 1.008 7.12.876l-.026.299zm3.957 1.646l.094.117.002-.001a3.16 3.16 0 0 1 .098-.077 11.01 11.01 0 0 1 1.044-.73l-.156-.257c-.288.176-.582.384-.803.547a15.084 15.084 0 0 0-.365.278l-.005.004-.002.001.093.118zm1.238-.692c.983-.597 2.105-.98 3.239-.979v-.3c-1.2-.002-2.376.404-3.395 1.023l.156.257zm3.178-.63c-1.62.018-3.18.825-4.264 1.894l.21.214c1.042-1.028 2.532-1.791 4.057-1.808l-.003-.3zM11.307 3.5l-.075-.13h.002a.264.264 0 0 1-.116.029c-.071.004-.178-.012-.3-.12l-.2.225a.702.702 0 0 0 .52.194.634.634 0 0 0 .242-.066l.002-.001V3.63l-.075-.13zm-.49-.221C9.237 1.89 7.011 1.01 4.918 1.897l.117.276c1.943-.822 4.048-.018 5.584 1.331l.198-.225zM4.918 1.897C2.374 2.972.696 6.017 1.788 9.063l.282-.101c-1.033-2.883.554-5.77 2.965-6.79l-.117-.275zm-3.13 7.166c.96 2.679 3.217 4.75 5.462 6.609l.191-.231C5.193 13.58 3 11.555 2.071 8.96l-.283.102zm5.462 6.609a39.942 39.942 0 0 0 3.743 2.754l.163-.252a39.655 39.655 0 0 1-3.715-2.733l-.19.23zm3.905 2.755c3.204-2.035 6.299-4.418 8.27-7.534l-.253-.16c-1.935 3.058-4.984 5.412-8.178 7.44l.16.254zm8.27-7.534c.828-1.309 1.353-2.83 1.088-4.453l-.296.048c.249 1.527-.24 2.974-1.045 4.245l.253.16zm1.088-4.453c-.41-2.514-2.398-4.921-4.988-4.941l-.002.3c2.394.018 4.298 2.264 4.694 4.689l.296-.048zm-4.989-4.941h-.058l.003.3h.055v-.3z"/></symbol><symbol viewBox="0 0 31 28" id="like-prof" xmlns="http://www.w3.org/2000/svg"><path fill-rule="evenodd" clip-rule="evenodd" d="M29.558 12.97C31.393 7.647 27.25 1.04 21.984 1c-1.687-.002-3.346.567-4.791 1.446-.819.498-1.676 1.184-1.676 1.184-1.63-1.38-3.602-2.407-5.697-2.593-3.36-.298-6.66 1.98-8.04 5.036-1.482 3.283-.7 6.815 1.063 9.54 2.998 4.634 7.529 8.137 12.21 11.17.608.39.783.135.783.135a52.74 52.74 0 0 0 4.424-3.102c3.887-3.004 7.764-6.393 9.298-10.846z"/><path d="M21.984 1V.85 1zm7.574 11.97l.142.049-.142-.05zM17.193 2.446l-.078-.128.078.128zM15.517 3.63l-.096.114.094.08.096-.077-.094-.117zM9.82 1.037l-.014.15.014-.15zM1.78 6.073l-.136-.062.136.062zm1.063 9.54l-.125.082.125-.081zm12.21 11.17l-.082.126.082-.126zm.783.135l-.08-.128-.026.017-.018.026.124.085zm4.424-3.102l-.091-.118.091.118zM21.983 1.15c2.568.02 4.878 1.642 6.324 3.934 1.445 2.291 2.01 5.226 1.11 7.837l.283.098c.935-2.713.345-5.742-1.14-8.095C27.078 2.572 24.684.871 21.986.85l-.002.3zM17.27 2.575c1.427-.869 3.06-1.427 4.712-1.425v-.3c-1.719-.002-3.405.578-4.868 1.468l.156.257zM15.517 3.63l.094.117.002-.002.008-.005.028-.023a17.671 17.671 0 0 1 .488-.371c.315-.233.73-.526 1.134-.771l-.156-.257a16.06 16.06 0 0 0-1.156.786 21.844 21.844 0 0 0-.496.378l-.03.023-.007.006-.002.001.093.118zm-5.71-2.444c2.055.183 3.998 1.193 5.614 2.558l.193-.229C13.967 2.123 11.968 1.077 9.833.888l-.027.298zm-7.89 4.948C3.275 3.128 6.521.895 9.807 1.186l.026-.298C6.4.583 3.045 2.908 1.643 6.01l.274.123zm1.052 9.399C1.225 12.835.462 9.358 1.917 6.134l-.273-.123c-1.51 3.342-.709 6.93 1.074 9.684l.251-.162zm12.166 11.124c-4.677-3.03-9.186-6.518-12.166-11.125l-.251.163c3.015 4.661 7.568 8.178 12.254 11.214l.163-.252zm.7.26a6.567 6.567 0 0 1-.123-.084v-.001l.002-.001v-.002a.042.042 0 0 1 .005-.005l-.005.004a.134.134 0 0 1-.06.02c-.072.009-.232-.006-.52-.191l-.162.252c.32.205.55.258.72.237a.432.432 0 0 0 .192-.071.336.336 0 0 0 .072-.067l.002-.003v-.002h.001l-.123-.085zm4.334-3.22a52.553 52.553 0 0 1-4.412 3.093l.158.255a52.89 52.89 0 0 0 4.437-3.11l-.183-.237zm9.248-10.776c-1.519 4.406-5.36 7.771-9.248 10.777l.183.237c3.885-3.003 7.797-6.416 9.348-10.916l-.283-.098z"/></symbol><symbol viewBox="0 0 160 52" id="logo" xmlns="http://www.w3.org/2000/svg"><g fill-rule="evenodd" clip-rule="evenodd"><path d="M13.578 35.476c-4.077 0-6.367-2.738-6.367-6.482l18.21-.004v-3.24c0-7.99-4.583-13.915-12.681-13.915C5.198 11.835.059 17.2.059 26.7c0 11.788 6.593 14.92 13.464 14.92 5.25 0 8.098-1.62 11.059-4.581l-4.413-4.303c-1.843 1.847-3.407 2.74-6.59 2.74zm-.837-17.602c2.457 0 4.076 1.285 4.859 3.018v-.001c.446 1.062.614 1.844.67 3.133H7.211c.056-1.288.223-2.07.67-3.132.782-1.733 2.402-3.018 4.86-3.018zm26.362 23.414c-5.92 0-8.434-4.192-8.434-8.327V18.544h-3.071v-5.532h3.071V4.407h7.261v8.605h5.14v5.532h-5.14v13.97c0 1.677.783 2.627 2.514 2.627h2.625v6.147h-3.966zm19.327.335c4.3 0 7.26-1.677 9.048-3.577 2.625-2.738 3.295-6.035 3.295-11.343 0-5.254-.67-8.548-3.295-11.289-1.787-1.9-4.748-3.576-9.048-3.576s-7.206 1.677-8.993 3.576c-2.625 2.739-3.295 6.036-3.295 11.289 0 5.308.67 8.602 3.295 11.343 1.791 1.9 4.692 3.577 8.993 3.577zm-.001-23.247c1.45 0 2.57.447 3.407 1.285v.001c1.508 1.508 1.676 4.023 1.676 7.04 0 3.018-.167 5.588-1.676 7.097-.838.838-1.955 1.285-3.407 1.285s-2.514-.447-3.351-1.285c-1.509-1.509-1.676-4.08-1.676-7.096 0-3.018.167-5.533 1.676-7.042.837-.838 1.9-1.285 3.351-1.285zm31.447 23.247c2.848 0 5.474-1.007 7.093-2.627 2.905-2.905 2.96-7.93 2.96-12.29 0-4.358-.056-9.332-2.96-12.238-1.62-1.62-4.245-2.626-7.093-2.626-3.072 0-5.25.838-7.261 3.073v-2.741h-7.038v39.783h7.26v-13.24c1.9 2.123 4.078 2.906 7.038 2.906zm-7.038-14.92c0-4.75.559-8.327 4.915-8.327 4.357 0 4.915 3.58 4.915 8.326 0 4.748-.558 8.38-4.915 8.38-4.356 0-4.915-3.63-4.915-8.38zm33.959 8.773c-4.077 0-6.367-2.738-6.367-6.482l18.21-.004v-3.24c0-7.99-4.583-13.915-12.681-13.915-7.543 0-12.682 5.365-12.682 14.864 0 11.788 6.594 14.92 13.464 14.92 5.25 0 8.099-1.62 11.059-4.581l-4.412-4.303c-1.844 1.847-3.408 2.74-6.591 2.74zm-.838-17.602c2.458 0 4.077 1.285 4.86 3.018v-.001c.447 1.062.614 1.844.67 3.133H110.43c.055-1.288.223-2.07.67-3.132.782-1.733 2.401-3.018 4.859-3.018zm26.364 23.414c-5.921 0-8.435-4.192-8.435-8.327V18.544h-3.072v-5.532h3.072V4.407h7.261v8.605h5.139v5.532h-5.138v13.97c0 1.677.783 2.627 2.513 2.627h2.626v6.147h-3.966zm8.815-36.868a4.407 4.407 0 0 0 4.406 4.407 4.41 4.41 0 0 0 4.405-4.407 4.406 4.406 0 1 0-8.811 0zm.867 0a3.54 3.54 0 0 1 3.539-3.54 3.54 3.54 0 1 1-3.539 3.54z"/><path d="M156.469 6.213h.642l-.835-1.614a.96.96 0 0 0 .728-.97 1.02 1.02 0 0 0-.314-.768c-.206-.199-.48-.298-.822-.298h-1.413v3.65h.553V4.675h.692l.769 1.538zm-.024-2.578a.534.534 0 0 1-.169.417.65.65 0 0 1-.451.149h-.82V3.057h.82a.646.646 0 0 1 .451.157.541.541 0 0 1 .169.42z"/></g></symbol><symbol viewBox="0 0 13 7" id="look" xmlns="http://www.w3.org/2000/svg"><path fill-rule="evenodd" clip-rule="evenodd" d="M6.526 0C9.003.02 11.6 1.002 12.85 3.15c.06.101.135.255.135.255.075.203-.126.429-.277.659C11.393 6.06 8.884 7 6.457 7 3.991 7 1.371 6.028.153 3.851c-.063-.112-.14-.28-.14-.28-.053-.154.073-.323.17-.49C1.384 1.046 3.894.02 6.41.002h.116zm-.114.412C4.214.429 1.967 1.214.717 3.007a3.976 3.976 0 0 0-.292.482s.313.58.688 1c1.359 1.527 3.52 2.14 5.568 2.097 2.32-.049 4.761-.973 5.877-3.067 0 0 .005-.047-.017-.087C11.439 1.441 8.948.431 6.524.412h-.112zm.104 1.544c1.007.02 1.827 1.22 1.354 2.213-.412.868-1.712 1.137-2.425.449-.837-.81-.361-2.635 1.032-2.662h.04zm-.034.412c-.737.014-1.339.896-.993 1.623.303.636 1.256.833 1.779.328.351-.34.446-.922.212-1.358a1.103 1.103 0 0 0-.998-.593z"/></symbol><symbol viewBox="0 0 24 18" id="message" xmlns="http://www.w3.org/2000/svg"><path fill-rule="evenodd" clip-rule="evenodd" d="M23.059 17.119c-.518.51-1.208.838-1.957.852-6.067.039-12.135.039-18.202 0-1.502-.029-2.852-1.363-2.881-2.953a965.533 965.533 0 0 1 0-12.036C.047 1.442 1.348.058 2.899.03c6.068-.039 12.136-.039 18.203 0 1.508.029 2.852 1.362 2.881 2.953.023 4.012.023 8.024 0 12.036a3.002 3.002 0 0 1-.538 1.64c.013.114-.047.202-.11.287a.415.415 0 0 1-.276.174zM14.97 9.328l-.469.464c-1.393 1.362-3.758 1.42-5.21-.002l-.101-.1-7.405 7.05c.324.23.71.37 1.125.378 6.06.038 12.121.038 18.182 0a2.05 2.05 0 0 0 1.257-.48l-7.378-7.309zM1.24 1.813a2.13 2.13 0 0 0-.388 1.18 962.25 962.25 0 0 0 0 12.014c.008.403.135.791.35 1.122L8.59 9.094 1.24 1.813zm21.437-.111l-7.106 7.032 7.318 7.25c.16-.291.254-.623.26-.977.023-4.004.023-8.01 0-12.014a2.159 2.159 0 0 0-.472-1.291zm-.64-.554a1.98 1.98 0 0 0-.945-.265c-6.052-.038-12.103 0-18.155 0a2.023 2.023 0 0 0-1.093.34c2.683 2.66 5.354 5.335 8.053 7.978 1.087 1.037 2.908 1.07 4.028-.026l8.111-8.027z"/></symbol><symbol viewBox="0 0 37 30" id="news" xmlns="http://www.w3.org/2000/svg"><path fill-rule="evenodd" clip-rule="evenodd" d="M31.466.664a.82.82 0 0 1 .015.154V3.01h3.848a.69.69 0 0 1 .442.167.7.7 0 0 1 .23.505v20.261c-.002.396-.046 2.61-1.847 4.353C32.446 29.95 30.372 30 29.942 30H6.055c-.392 0-2.65-.038-4.398-1.88C.045 26.423-.001 24.383 0 23.944V.671C0 .616.008.407.17.225A.694.694 0 0 1 .67 0h29.97a.826.826 0 0 1 .046 0h.11a.721.721 0 0 1 .499.237.71.71 0 0 1 .171.427zm-1.621 3.983h-.015v-3.01H1.636v22.306c0 .418.085 1.87 1.207 3.051 1.208 1.271 2.764 1.37 3.212 1.37h23.887c.418 0 1.886-.093 3.074-1.244 1.246-1.205 1.346-2.74 1.348-3.181V4.647H31.48v19.585a.818.818 0 0 1-1.636 0V4.647zM15.38 5.773a.84.84 0 0 0-.84-.839H5.767a.84.84 0 0 0-.84.84v7.867c0 .464.376.84.84.84h8.773a.84.84 0 0 0 .84-.84V5.773zm-8.816 7.072h7.18V6.57h-7.18v6.275zM17.83 6.57h7.917a.818.818 0 1 0 0-1.636H17.83a.818.818 0 0 0 0 1.636zm7.917 3.956H17.83a.818.818 0 0 1 0-1.637h7.917a.818.818 0 1 1 0 1.637zM17.83 14.48h7.917a.818.818 0 1 0 0-1.636H17.83a.818.818 0 0 0 0 1.636zm7.917 3.956H5.745a.818.818 0 1 1 0-1.637h20.002a.818.818 0 1 1 0 1.637zM5.745 22.392h20.002a.818.818 0 1 0 0-1.636H5.745a.818.818 0 1 0 0 1.636z"/></symbol><symbol viewBox="0 0 6 10" id="next" xmlns="http://www.w3.org/2000/svg"><path fill-rule="evenodd" clip-rule="evenodd" d="M1.121.398L0 1.519l3.68 3.68L0 8.878 1.121 10l4.801-4.801L1.121.398z"/></symbol><symbol viewBox="0 0 34 34" id="not" xmlns="http://www.w3.org/2000/svg"><path fill-rule="evenodd" clip-rule="evenodd" d="M17 34c9.389 0 17-7.611 17-17S26.389 0 17 0 0 7.611 0 17s7.611 17 17 17zm8.264-21.465L21.727 9l-4.596 4.596L12.535 9 9 12.536l4.596 4.596L9 21.728l3.536 3.535 4.596-4.596 4.596 4.596 3.535-3.535-4.596-4.596 4.596-4.597z"/></symbol><symbol viewBox="0 0 26 26" id="ok" xmlns="http://www.w3.org/2000/svg"><g fill-rule="evenodd" clip-rule="evenodd"><path d="M13.065 26c7.013 0 12.698-5.82 12.698-13S20.078 0 13.065 0C6.053 0 .368 5.82.368 13s5.684 13 12.697 13z"/><path d="M8.173 12.956c-.407.816.055 1.206 1.11 1.872.898.565 2.137.772 2.934.854l-.668.654c-.945.918-1.843 1.806-2.47 2.422-.913.892.557 2.323 1.47 1.45l2.47-2.428c.946.927 1.852 1.816 2.47 2.431.913.877 2.383-.542 1.48-1.45l-2.47-2.421-.677-.655c.806-.082 2.027-.3 2.913-.854 1.055-.67 1.518-1.06 1.116-1.875-.242-.463-.896-.85-1.767-.181 0 0-1.176.918-3.072.918-1.897 0-3.072-.918-3.072-.918-.87-.673-1.527-.283-1.767.18z"/><path d="M17.21 8.349c0 2.266-1.888 4.106-4.2 4.106-2.312 0-4.2-1.84-4.2-4.106 0-2.276 1.888-4.116 4.2-4.116 2.312 0 4.2 1.84 4.2 4.116zm-2.138 0c0-1.123-.926-2.031-2.062-2.031-1.136 0-2.063.907-2.062 2.03 0 1.114.926 2.022 2.062 2.022 1.136 0 2.063-.908 2.063-2.021z"/></g></symbol><symbol viewBox="0 0 30 31" id="organiz" xmlns="http://www.w3.org/2000/svg"><path fill-rule="evenodd" clip-rule="evenodd" d="M1.147 10.826L14.882.706a.374.374 0 0 1 .429 0l13.735 10.12a.37.37 0 0 1 .147.294v18.795c0 .19-.172.361-.362.361H1.361A.376.376 0 0 1 1 29.915V11.12c0-.114.055-.227.147-.294zm27.323.463l-13.374-9.85-13.373 9.85v18.264H28.47V11.29z"/><path d="M14.882.705l-.273-.419-.012.008-.012.009.297.402zM1.147 10.825l-.297-.402.297.403zM15.31.706l.297-.402L15.59.29l-.017-.01-.262.425zm13.735 10.12l.297-.401-.297.402zm.147 19.09h.5-.5zm-.362.361v.5-.5zm-27.47 0v.5-.5zM1 29.915H.5 1zM1 11.12h.5v-.004l-.5.004zm14.096-9.68l.297-.403-.297-.218-.296.218.296.403zm13.374 9.849h.5v-.253l-.204-.15-.296.403zm-26.747 0l-.297-.403-.203.15v.253h.5zm0 18.264h-.5v.5h.5v-.5zm26.747 0v.5h.5v-.5h-.5zM14.585.303L.85 10.423l.593.805 13.735-10.12-.593-.805zm.988-.023a.895.895 0 0 0-.559-.138.898.898 0 0 0-.405.144l.545.838c.005-.002-.012.01-.046.013a.149.149 0 0 1-.048-.003c-.013-.003-.017-.007-.011-.003l.524-.851zm13.77 10.143L15.608.303l-.594.805 13.735 10.12.594-.805zm.35.697a.87.87 0 0 0-.35-.696l-.594.804a.13.13 0 0 1-.056-.109h1zm0 18.795V11.12h-1v18.795h1zm-.862.861a.875.875 0 0 0 .862-.861h-1a.14.14 0 0 1 .037-.102.14.14 0 0 1 .101-.037v1zm-27.47 0h27.47v-1H1.361v1zM.5 29.915c0 .465.396.861.861.861v-1a.14.14 0 0 1 .102.037.14.14 0 0 1 .037.102h-1zm0-18.795v18.795h1V11.12h-1zm.35-.696a.867.867 0 0 0-.35.7l1-.008a.138.138 0 0 1-.014.063.138.138 0 0 1-.042.05l-.594-.805zM14.8 1.842l13.373 9.85.593-.806-13.373-9.85-.593.806zm-12.78 9.85l13.373-9.85-.593-.805-13.374 9.85.593.805zm.203 17.861V11.29h-1v18.264h1zm26.247-.5H1.723v1H28.47v-1zm-.5-17.764v18.264h1V11.29h-1z"/><path fill-rule="evenodd" clip-rule="evenodd" d="M19.14 20.575c1.138.927 2.41 1.962 2.26 3.107-.169 1-.964 1.763-1.946 1.867a2.249 2.249 0 0 1-2.205-1.067 2.232 2.232 0 0 0-1.427-1.066l-.303-.067a2.253 2.253 0 0 0-1.016 0l-.325.089c-.58.14-1.08.517-1.383 1.044a2.234 2.234 0 0 1-1.946 1.09h-.281c-1.06-.134-1.881-.89-1.946-1.912-.064-1.007.943-1.95 1.903-2.849a16.674 16.674 0 0 0 .27-.255c.518-.49.983-.93 1.135-1.318.16-.45.247-.922.26-1.4.012-.402.085-.8.215-1.178.346-.822 1.168-1.8 2.357-1.8h.022c1.405.022 2.465.933 2.465 2.155a4.982 4.982 0 0 0 .432 2.134c.167.364.736.832 1.359 1.344l.068.056.032.026zm-1.524 3.685a1.82 1.82 0 0 0 1.795.867h-.022a1.793 1.793 0 0 0 1.579-1.49c.106-.895-1.042-1.834-2.088-2.69l-.053-.043c-.714-.577-1.34-1.088-1.557-1.555a5.392 5.392 0 0 1-.475-2.311c0-1-1.06-1.711-2.033-1.734-.973-.022-1.686.823-1.967 1.534-.108.337-.166.69-.173 1.044a4.964 4.964 0 0 1-.281 1.534c-.227.507-.57.833-1.348 1.572l-.123.116c-.865.823-1.86 1.8-1.816 2.534.043.733.714 1.4 1.557 1.489a1.82 1.82 0 0 0 1.794-.867 2.62 2.62 0 0 1 1.687-1.245l.324-.088a2.673 2.673 0 0 1 1.211 0l.303.066a2.665 2.665 0 0 1 1.686 1.267z"/><path d="M21.4 23.682l.493.084.002-.01v-.009l-.495-.065zm-2.26-3.107l-.316.388.316-.388zm.314 4.974l-.053-.497-.012.001.065.496zm-2.205-1.067l-.434.25.004.006.004.006.426-.262zm-1.427-1.066l.112-.488h-.005l-.107.488zm-.303-.067l-.113.487.005.001.108-.488zm-1.016 0l-.113-.487-.01.002-.01.003.133.482zm-.325.089l.117.486.008-.002.008-.002-.133-.482zm-1.383 1.044l.427.26.006-.01-.433-.25zm-1.946 1.09l.008-.5h-.008v.5zm-.281 0l-.063.495.031.004h.032v-.5zM8.622 23.66l.499-.032-.5.032zm1.903-2.849l-.342-.365.342.365zm.043-.04l.341.365.004-.003-.345-.362zm.226-.215l-.343-.363.343.363zm1.136-1.318l.466.181.002-.007.003-.007-.471-.167zm.26-1.4l-.5-.016v.003l.5.013zm.215-1.178l-.46-.194-.007.015-.005.016.472.163zm2.379-1.8l.008-.5h-.008v.5zm2.465 2.155l.5.01v-.01h-.5zm.432 2.134l-.456.204.002.004.454-.208zm1.359 1.344l-.318.386.318-.386zm.068.056l-.317.386.001.002.316-.388zm.303 4.578l.067.495-.067-.995v.5zm-1.795-.867l-.433.25.007.011.426-.261zm1.773.867l-.048-.498.048.998v-.5zm1.579-1.49l.492.088.002-.014.002-.014-.496-.06zm-2.088-2.69l.317-.386-.317.387zm-.053-.043l.317-.387-.002-.001-.315.388zM17.27 19.35l-.455.206.002.004.453-.21zm-.475-2.311l.5.008v-.008h-.5zm-4-.2l-.465-.184-.007.016-.005.016.477.152zm-.173 1.044l.5.012v-.002l-.5-.01zm-.281 1.534l.456.203.008-.018.007-.02-.471-.165zm-1.348 1.572l.345.362-.345-.363zm-.123.116l.345.363-.345-.363zm-1.816 2.534l.5-.03-.5.03zm1.557 1.489l.067-.496h-.008l-.007-.002-.052.498zm1.794-.867l.427.261.005-.01-.432-.251zm1.687-1.245l.11.488.01-.002.012-.003-.132-.483zm.324-.088l-.113-.487-.01.002-.009.002.132.483zm1.211 0l-.113.487h.006l.107-.487zm.303.066l.116-.486-.009-.002-.107.488zm5.966.754c.102-.784-.29-1.47-.762-2.024-.477-.56-1.118-1.08-1.678-1.536l-.631.776c.577.47 1.141.932 1.547 1.408.411.482.58.886.532 1.246l.992.13zm-2.39 2.3c1.214-.13 2.182-1.069 2.387-2.282l-.986-.166c-.133.787-.755 1.373-1.506 1.453l.106.994zm-2.683-1.303a2.749 2.749 0 0 0 2.696 1.3l-.13-.99a1.749 1.749 0 0 1-1.715-.834l-.851.524zm-1.114-.841c.46.106.862.404 1.106.829l.867-.5a2.732 2.732 0 0 0-1.748-1.304l-.225.975zm-.298-.066l.303.067.215-.977-.303-.066-.215.976zm-.796-.001c.26-.06.53-.06.791 0l.226-.974a2.754 2.754 0 0 0-1.242 0l.225.974zm-.304.084l.324-.089-.264-.964-.325.088.265.965zm-1.083.811c.236-.41.623-.7 1.067-.807l-.233-.972a2.69 2.69 0 0 0-1.7 1.281l.866.498zm-2.388 1.34a2.734 2.734 0 0 0 2.382-1.33l-.855-.518c-.328.54-.902.858-1.51.848l-.017 1zm-.272 0h.28v-1h-.28v1zm-2.445-2.38c.082 1.304 1.128 2.218 2.382 2.376l.125-.992c-.865-.109-1.462-.705-1.51-1.447l-.997.064zm2.06-3.245c-.472.442-.997.932-1.39 1.444-.392.51-.714 1.119-.67 1.802l.998-.064c-.02-.324.129-.69.465-1.129.334-.435.793-.866 1.28-1.323l-.683-.73zm.043-.04l-.043.04.684.73.042-.04-.683-.73zm.225-.213l-.229.216.69.724c.076-.072.15-.143.226-.213l-.687-.727zm1.013-1.137c-.041.106-.144.257-.334.466-.185.203-.416.422-.68.67l.688.728c.255-.242.516-.488.732-.725.21-.23.416-.493.526-.776l-.932-.363zm.225-1.231a4.035 4.035 0 0 1-.23 1.245l.942.335a5.03 5.03 0 0 0 .288-1.554l-1-.026zm.244-1.328a4.49 4.49 0 0 0-.244 1.325l1 .031c.01-.351.075-.699.189-1.03l-.945-.326zm2.83-2.137c-1.486 0-2.44 1.205-2.818 2.106l.921.388c.313-.744 1.003-1.494 1.896-1.494v-1zm.02 0h-.02v1h.02v-1zm2.966 2.655c0-1.564-1.354-2.63-2.957-2.655l-.016 1c1.207.019 1.973.776 1.973 1.655h1zm.389 1.93a4.481 4.481 0 0 1-.39-1.92l-1-.02a5.483 5.483 0 0 0 .477 2.348l.912-.408zm1.22 1.161a17.365 17.365 0 0 1-.826-.705c-.238-.224-.357-.375-.396-.46l-.91.416c.128.279.378.544.621.773.256.24.568.496.875.749l.635-.773zm.068.057l-.069-.057-.635.773.069.056.635-.772zm.03.024l-.032-.026-.632.776.032.026.632-.776zm-.112 4.444A1.32 1.32 0 0 1 18.043 24l-.853.522a2.32 2.32 0 0 0 2.288 1.101l-.134-.99zm.045.996h.022v-1h-.022v1zm1.086-2.076a1.293 1.293 0 0 1-1.134 1.078l.096.995c1.023-.099 1.843-.883 2.023-1.9l-.985-.173zm-1.912-2.216c.532.434 1.047.857 1.42 1.275.389.436.514.75.488.969l.993.118c.08-.677-.315-1.281-.735-1.752-.436-.49-1.018-.963-1.532-1.384l-.633.774zm-.052-.044l.053.044.633-.774-.053-.044-.633.774zm-1.694-1.732c.15.323.418.621.701.89.29.273.641.558.994.844l.63-.777a16.76 16.76 0 0 1-.936-.794c-.263-.249-.415-.44-.482-.583l-.907.42zm-.522-2.53a5.892 5.892 0 0 0 .52 2.526l.911-.412a4.89 4.89 0 0 1-.431-2.097l-1-.017zm-1.544-1.225c.377.009.78.154 1.082.393.3.236.462.53.462.84h1c0-.69-.368-1.25-.842-1.625a2.871 2.871 0 0 0-1.68-.607l-.022 1zm-1.491 1.218a2.31 2.31 0 0 1 .59-.852c.267-.236.571-.373.9-.366l.024-1c-.644-.014-1.183.26-1.587.618a3.31 3.31 0 0 0-.857 1.232l.93.368zm-.139.87a3.17 3.17 0 0 1 .15-.902l-.953-.304a4.171 4.171 0 0 0-.196 1.186l1 .02zm-.309 1.69a5.465 5.465 0 0 0 .31-1.688l-1-.024a4.47 4.47 0 0 1-.253 1.38l.943.332zm-1.474 1.768c.754-.716 1.184-1.114 1.46-1.73l-.914-.408c-.177.398-.434.652-1.235 1.413l.689.725zm-.123.117l.123-.117-.689-.725-.123.117.689.725zm-1.662 2.141c-.004-.067.015-.177.095-.342.078-.161.201-.346.364-.55.327-.408.768-.835 1.203-1.25l-.69-.724c-.429.409-.918.88-1.294 1.35-.188.236-.36.485-.483.738-.122.25-.21.538-.193.837l.998-.059zm1.11 1.021c-.635-.067-1.083-.565-1.11-1.02l-.998.058c.06 1.011.952 1.846 2.003 1.957l.105-.995zM11.98 24a1.32 1.32 0 0 1-1.301.632l-.134.991a2.32 2.32 0 0 0 2.288-1.1L11.98 24zm2.004-1.471a3.124 3.124 0 0 0-2.01 1.48l.864.504a2.121 2.121 0 0 1 1.364-1.009l-.218-.975zm.301-.084l-.324.09.264.964.324-.09-.264-.964zm1.456-.004a3.173 3.173 0 0 0-1.437 0l.226.974c.325-.076.66-.076.985 0l.226-.974zm.297.065l-.302-.067-.215.977.302.067.215-.977zm2.012 1.505a3.166 3.166 0 0 0-2.003-1.503l-.232.973c.57.135 1.066.506 1.37 1.03l.865-.5z"/><path fill-rule="evenodd" clip-rule="evenodd" d="M9.076 17.993a2.38 2.38 0 0 1-1.32-.71 2.49 2.49 0 0 1-.691-1.379 1.47 1.47 0 0 1 .367-1.266c.606-.622 1.752-.467 2.552.355.364.365.607.84.692 1.356a1.47 1.47 0 0 1-.368 1.244 1.32 1.32 0 0 1-.973.4h-.26zm-.67-3.288a.916.916 0 0 0-.67.266v-.022c-.213.24-.301.57-.239.889.075.425.28.814.584 1.111.289.313.668.524 1.081.6.31.064.63-.026.865-.244.212-.241.3-.571.238-.89a2.04 2.04 0 0 0-.584-1.11 1.86 1.86 0 0 0-1.276-.6z"/><path d="M7.757 17.282l.363-.344-.009-.008-.354.352zm1.319.711l-.086.493.043.007h.043v-.5zm-2.011-2.088l.494-.076-.002-.014-.492.09zm.367-1.267l-.358-.349-.007.008.365.34zm2.552.355l-.359.35.005.004.354-.354zm.692 1.356l-.494.081v.002l.494-.083zm-.368 1.244l.357.35.01-.01-.367-.34zm-.973.4l.011-.5h-.01v.5zm-1.6-3.022h-.5v1.198l.852-.842-.352-.356zm.67-.267l.025-.499h-.01l-.015.5zm-.67.245h.5v-1.323l-.875.992.375.331zm-.238.889l.493-.086-.002-.01-.49.096zm.584 1.111l.368-.339-.01-.01-.01-.01-.348.359zm1.081.6l.102-.49-.011-.002-.09.492zm.865-.244l.34.365.019-.016.016-.019-.375-.33zm.238-.89l-.493.087.002.01.49-.096zm-.584-1.11l-.367.339.009.01.01.009.348-.358zm-2.287 2.321a2.88 2.88 0 0 0 1.596.86l.171-.985a1.88 1.88 0 0 1-1.041-.563l-.726.688zM6.57 15.98a2.99 2.99 0 0 0 .831 1.655l.71-.705a1.991 1.991 0 0 1-.553-1.101l-.988.151zm.496-1.684a1.971 1.971 0 0 0-.494 1.698l.984-.18a.971.971 0 0 1 .24-.835l-.73-.682zm3.275.349c-.47-.483-1.055-.786-1.638-.866-.585-.081-1.194.062-1.63.51l.717.697c.169-.173.435-.264.776-.217.341.047.728.234 1.058.573l.717-.697zm.827 1.623a2.99 2.99 0 0 0-.832-1.628l-.707.707c.29.29.484.669.552 1.083l.987-.162zm-.494 1.665a1.97 1.97 0 0 0 .494-1.668l-.986.167c.05.3-.041.605-.241.821l.733.68zm-1.35.56c.503.011.987-.19 1.34-.55l-.714-.7a.821.821 0 0 1-.605.25l-.022 1zm-.25 0h.26v-1h-.26v1zm-.988-3.166a.416.416 0 0 1 .304-.123l.029-1a1.416 1.416 0 0 0-1.036.412l.703.71zm-.852-.378v.022h1v-.022h-1zm.753.792a.542.542 0 0 1 .122-.461l-.75-.662a1.542 1.542 0 0 0-.353 1.316l.98-.193zm.442.85a1.54 1.54 0 0 1-.44-.84l-.985.173a2.54 2.54 0 0 0 .727 1.383l.698-.716zm.823.466a1.453 1.453 0 0 1-.804-.447l-.736.678c.361.392.837.657 1.358.753l.182-.984zm.433-.118a.476.476 0 0 1-.422.12l-.204.98a1.48 1.48 0 0 0 1.308-.369l-.682-.731zm.088-.427a.542.542 0 0 1-.122.462l.75.661c.316-.359.446-.847.354-1.316l-.982.193zm-.442-.85c.229.223.384.517.44.84l.985-.172a2.54 2.54 0 0 0-.727-1.384l-.698.717zm-.95-.458c.35.017.685.173.932.44l.734-.679a2.36 2.36 0 0 0-1.618-.76l-.049.999z"/><path fill-rule="evenodd" clip-rule="evenodd" d="M11.151 10.527a1.413 1.413 0 0 1 1.017-.823c.864-.133 1.75.69 1.902 1.845.152 1.155-.389 2.2-1.254 2.333h-.194c-.8 0-1.536-.777-1.687-1.844a2.528 2.528 0 0 1 .216-1.511zm.217 1.444c.13.911.735 1.556 1.362 1.467.627-.09 1.038-.978.908-1.822-.13-.845-.67-1.467-1.254-1.467h-.13a1 1 0 0 0-.713.578 2.072 2.072 0 0 0-.173 1.244z"/><path d="M12.168 9.704l-.077-.494-.01.002-.01.002.097.49zm-1.017.823l.45.217.004-.008.004-.008-.458-.201zm2.92 1.022l.495-.065-.496.065zm-1.255 2.333v.5h.038l.038-.006-.076-.494zm-1.88-1.844l.494-.07-.002-.012-.493.082zm.432-.067l.495-.07-.003-.014-.492.084zm2.27-.355l.494-.076-.494.076zm-1.384-1.467v-.5h-.05l-.049.01.099.49zm-.713.578l.45.216.006-.013-.457-.203zm.53-1.513a1.913 1.913 0 0 0-1.377 1.11l.915.405a.913.913 0 0 1 .655-.534l-.193-.981zm2.495 2.27c-.09-.685-.399-1.286-.834-1.702-.434-.415-1.02-.667-1.64-.572l.152.989c.245-.038.533.054.797.306.262.25.472.638.534 1.109l.991-.13zm-1.674 2.892c.626-.096 1.095-.517 1.374-1.042.278-.525.388-1.181.3-1.85l-.992.13c.064.487-.021.93-.191 1.25-.17.32-.403.487-.643.524l.152.988zm-.27.006h.194v-1h-.194v1zm-2.182-2.274c.172 1.211 1.042 2.274 2.182 2.274v-1c-.46 0-1.06-.492-1.192-1.414l-.99.14zm.261-1.799a3.028 3.028 0 0 0-.26 1.81l.987-.163a2.028 2.028 0 0 1 .174-1.212l-.9-.435zm1.958 2.634c-.109.015-.264-.025-.431-.204-.167-.18-.313-.47-.365-.838l-.99.14c.077.543.298 1.03.623 1.38.325.348.786.585 1.304.512l-.14-.99zm.485-1.252c.05.325-.007.655-.126.9-.124.255-.27.34-.359.352l.14.99c.54-.077.912-.481 1.118-.904a2.57 2.57 0 0 0 .215-1.49l-.988.152zm-.76-1.042c.107 0 .26.058.418.242.156.182.29.46.342.8l.988-.151a2.607 2.607 0 0 0-.572-1.3c-.29-.338-.7-.591-1.176-.591v1zm-.13 0h.13v-1h-.13v1zm-.257.281a.5.5 0 0 1 .356-.29l-.197-.981a1.5 1.5 0 0 0-1.072.864l.913.407zm-.137.957a1.573 1.573 0 0 1 .131-.944l-.901-.432a2.57 2.57 0 0 0-.215 1.545l.985-.17z"/><path fill-rule="evenodd" clip-rule="evenodd" d="M17.227 13.882c-.843-.133-1.427-1.155-1.276-2.31.152-1.156.995-2.023 1.838-1.89.843.134 1.406 1.223 1.276 2.311-.13 1.09-.865 1.89-1.665 1.89h-.173zm.065-.444c.627.089 1.21-.578 1.34-1.49.13-.91-.28-1.71-.908-1.8h-.108c-.584 0-1.102.579-1.232 1.49-.13.91.28 1.71.908 1.8z"/><path d="M15.951 11.571l.496.065-.496-.065zm1.276 2.311l-.078.494.039.006h.039v-.5zm.562-4.2l.078-.494-.078.494zm.843 2.267l-.495-.07.495.07zm-1.34 1.489l-.07.495.07-.495zm.432-3.29l.07-.494-.034-.005h-.036v.5zm-2.268 1.358c-.089.676.035 1.33.324 1.848.288.516.76.926 1.369 1.022l.156-.988c-.235-.037-.475-.205-.652-.522-.176-.315-.269-.75-.206-1.23l-.991-.13zm2.411-2.318c-.625-.098-1.2.181-1.615.607-.416.427-.708 1.035-.796 1.711l.991.13c.063-.48.268-.883.522-1.144.256-.263.524-.35.742-.316l.156-.988zm1.694 2.864a3.09 3.09 0 0 0-.33-1.81c-.278-.515-.742-.955-1.364-1.054l-.156.988c.222.035.46.206.641.541.179.331.27.771.216 1.217l.993.119zm-2.161 2.33c1.15 0 2.015-1.098 2.161-2.33l-.993-.118c-.112.947-.718 1.448-1.168 1.448v1zm-.173 0h.173v-1h-.173v1zm.91-2.504c-.053.375-.197.673-.361.857-.165.185-.313.222-.414.208l-.14.99c.525.074.983-.177 1.3-.532.316-.354.529-.845.605-1.382l-.99-.14zm-.483-1.234c.108.015.248.098.362.323.113.222.174.545.121.911l.99.141c.078-.544-.002-1.077-.219-1.505-.216-.425-.594-.787-1.114-.86l-.14.99zm-.038.005h.108v-1h-.108v1zm-.737 1.06c.115-.81.525-1.06.737-1.06v-1c-.955 0-1.583.906-1.727 1.918l.99.141zm.483 1.234c-.107-.015-.248-.099-.362-.323-.113-.223-.173-.545-.121-.912l-.99-.14c-.078.544.002 1.077.22 1.504.215.426.593.787 1.113.86l.14-.99z"/><g><path fill-rule="evenodd" clip-rule="evenodd" d="M22.568 14.438c.314.336.45.808.367 1.266l-.021.045c-.195 1.047-.992 1.867-2.011 2.067h-.26a1.322 1.322 0 0 1-.973-.4 1.472 1.472 0 0 1-.346-1.267 2.49 2.49 0 0 1 .692-1.356c.779-.822 1.946-.977 2.552-.355zm-2.561 2.649a.892.892 0 0 0 .852.24 2.127 2.127 0 0 0 1.644-1.69 1.042 1.042 0 0 0-.238-.888.916.916 0 0 0-.649-.245 1.86 1.86 0 0 0-1.276.6 2.04 2.04 0 0 0-.583 1.112.95.95 0 0 0 .25.87z"/><path d="M22.935 15.704l.45.22.03-.062.012-.068-.492-.09zm-.367-1.266l.365-.342-.007-.007-.358.349zm.345 1.31l-.45-.218-.029.061-.012.067.491.09zm-2.01 2.068v.5h.048l.048-.01-.096-.49zm-.26 0v-.5h-.01l.01.5zm-.973-.4l-.371.334.007.008.007.007.357-.35zm-.346-1.267l.49.096.002-.007.002-.008-.494-.081zm.692-1.356l.354.354.01-.01-.364-.344zm.843 2.534l-.1-.49-.011.002-.011.003.122.485zm-.852-.24l-.355.352.355-.352zm2.496-1.45l-.49-.096h-.001l.49.097zm-.238-.888l.375-.33-.017-.02-.019-.017-.34.367zm-.649-.245l-.015-.5-.009.001.024.5zm-1.276.6l.35.359.009-.01.009-.01-.367-.339zm-.583 1.112l.488.106.002-.01.002-.01-.492-.086zm3.67-.422a1.971 1.971 0 0 0-.494-1.698l-.73.683c.204.22.296.53.24.836l.984.18zm-.064.174l.022-.045-.9-.437-.021.044.9.438zM21 18.306c1.227-.24 2.175-1.224 2.406-2.466l-.983-.182c-.158.852-.804 1.508-1.616 1.667l.193.981zm-.356.01h.26v-1h-.26v1zm-1.33-.55c.353.36.837.56 1.341.55l-.022-1a.822.822 0 0 1-.605-.25l-.714.7zm-.48-1.713a1.973 1.973 0 0 0 .466 1.697l.743-.669a.973.973 0 0 1-.227-.836l-.981-.193zm.83-1.613c-.44.44-.73 1.01-.832 1.628l.987.162a1.99 1.99 0 0 1 .552-1.083l-.707-.707zm3.263-.35c-.438-.45-1.053-.592-1.637-.511-.585.08-1.174.382-1.636.87l.726.688c.317-.334.701-.52 1.046-.568.345-.047.616.045.784.217l.717-.697zm-2.189 2.752a.391.391 0 0 1-.375-.107l-.71.704c.347.35.85.494 1.33.372l-.245-.97zm1.275-1.3a1.628 1.628 0 0 1-1.254 1.295l.203.98a2.627 2.627 0 0 0 2.032-2.083l-.981-.192zm-.122-.463a.542.542 0 0 1 .122.462l.981.193a1.542 1.542 0 0 0-.353-1.316l-.75.662zm-.259-.075a.415.415 0 0 1 .295.112l.678-.734a1.415 1.415 0 0 0-1.003-.377l.03 1zm-.923.44a1.36 1.36 0 0 1 .932-.44l-.048-.999a2.36 2.36 0 0 0-1.619.76l.735.679zm-.459.858a1.54 1.54 0 0 1 .44-.84l-.697-.716a2.54 2.54 0 0 0-.728 1.383l.985.173zm.113.433a.45.45 0 0 1-.117-.413l-.977-.213a1.45 1.45 0 0 0 .384 1.33l.71-.704z"/></g></symbol><symbol viewBox="0 0 19 16" id="pen" xmlns="http://www.w3.org/2000/svg"><path fill-rule="evenodd" clip-rule="evenodd" d="M16.1 1.095l2.083 2.085a.184.184 0 0 1 0 .26l-2.084 2.084-9.378 9.379a.186.186 0 0 1-.13.053H.367a.184.184 0 0 1 0-.368h3.954v-1.9c0-.049.02-.096.054-.13l9.378-9.378h.001l2.084-2.085a.19.19 0 0 1 .26 0zm-9.25 9.51l1.824 1.823 7.034-7.034-1.824-1.824-7.034 7.034zm-.336 3.983H4.69v-1.824l1.9-1.9 1.824 1.824-1.9 1.9zM14.145 3.31l1.824 1.823 1.823-1.823-1.823-1.824-1.824 1.824z"/><path d="M18.183 3.18l-.141.141.141-.141zm-2.084-2.085l.142-.141-.142.141zm2.084 2.345l.141.141-.141-.14zm-2.084 2.084l-.142-.142-.058.059v.083h.2zm0 0v.2h.2v-.2h-.2zm0 0v-.2h-.083l-.059.059.142.141zM6.72 14.903l.14.142h.001l-.141-.142zm-2.4-.315v.2h.2v-.2h-.2zm.055-2.03l-.142-.142.142.142zm9.378-9.378l.142.141-.142-.141zm0 0v-.2h-.082l-.059.058.142.141zm.001 0v.2h.083l.058-.06-.141-.14zm2.084-2.085l.141.142-.141-.142zM8.674 12.428l-.141.141.141.141.142-.14-.142-.142zM6.85 10.604l-.141-.141-.141.141.141.142.141-.142zm8.858-5.21l.141.142.142-.142-.142-.141-.141.141zM13.884 3.57l.142-.14-.142-.142-.141.141.141.141zm-7.37 11.018v.2h.083l.058-.059-.141-.14zm-1.824 0h-.2v.2h.2v-.2zm0-1.824l-.141-.141-.059.059v.082h.2zm1.9-1.9l.141-.14-.141-.142-.141.141.14.142zm1.824 1.824l.141.142.141-.142-.141-.141-.141.141zm7.555-7.555l-.142.142.142.141.141-.141-.141-.142zM14.145 3.31l-.141-.142-.142.142.142.141.141-.141zm3.647 0l.142.141.141-.141-.141-.142-.142.142zM15.97 1.486l.141-.141-.141-.142-.142.142.142.141zm2.356 1.552L16.24.954l-.283.283 2.084 2.084.282-.283zm0 .543a.384.384 0 0 0 0-.543l-.283.283a.016.016 0 0 1 0-.022l.282.282zM16.24 5.665l2.084-2.084-.283-.282-2.084 2.083.283.283zm.059-.14v-.001h-.4.4zm-.2.2v-.4.4zm-9.237 9.32l9.378-9.38-.283-.282L6.58 14.76l.283.283zm-.272.111c.103 0 .2-.04.271-.111l-.28-.284a.015.015 0 0 1 .01-.004v.4zm-6.222 0H6.59v-.4H.368v.4zm-.384-.384c0 .213.172.384.384.384v-.4c.01 0 .016.008.016.016h-.4zm.384-.384a.384.384 0 0 0-.384.384h.4a.016.016 0 0 1-.016.016v-.4zm3.954 0H.368v.4h3.954v-.4zm-.2-1.7v1.9h.4v-1.9h-.4zm.112-.272a.384.384 0 0 0-.112.272h.4a.016.016 0 0 1-.005.011l-.283-.283zm9.379-9.378l-9.379 9.378.283.283 9.379-9.378-.283-.283zm0 0l.283.283-.283-.283zm.142-.059v.4-.4zM15.697.954l-2.083 2.084.282.283 2.084-2.084-.283-.283zm.544 0a.39.39 0 0 0-.544 0l.284.282a.028.028 0 0 1-.01.007.01.01 0 0 1-.002 0h-.002a.027.027 0 0 1-.01-.006l.284-.283zM8.816 12.286l-1.824-1.823-.283.283 1.824 1.823.283-.283zm6.75-7.033l-7.033 7.033.283.283 7.033-7.033-.282-.283zm-1.823-1.541l1.824 1.824.282-.283-1.823-1.824-.283.283zm-6.751 7.034l7.034-7.034-.283-.283-7.034 7.034.283.283zm-2.203 4.042h1.725v-.4H4.789v.4zm-.099 0h.1v-.4h-.1v.4zm-.2-2.024v1.824h.4v-1.824h-.4zm1.959-2.04l-1.9 1.899.282.283 1.9-1.9-.282-.283zm2.106 1.823l-1.824-1.824-.282.283 1.823 1.824.283-.283zm-1.9 2.182l1.9-1.9-.283-.282-1.9 1.9.283.283zm9.455-9.737l-1.823-1.824-.283.283 1.823 1.824.283-.283zm1.54-1.824l-1.823 1.824.283.283 1.824-1.824-.283-.283zm-1.823-1.54l1.824 1.823.283-.283-1.824-1.823-.283.282zm-1.54 1.823l1.823-1.824-.283-.282-1.823 1.823.283.283z"/></symbol><symbol viewBox="0 0 29 32" id="people" xmlns="http://www.w3.org/2000/svg"><path fill-rule="evenodd" clip-rule="evenodd" d="M15 21C9.5 21 5 16.5 5 11S9.5 1 15 1s10 4.5 10 10-4.5 10-10 10zm0-2.353c4.206 0 7.647-3.441 7.647-7.647S19.206 3.353 15 3.353 7.353 6.794 7.353 11s3.441 7.647 7.647 7.647z"/><path d="M4.7 11c0 5.666 4.634 10.3 10.3 10.3v-.6c-5.334 0-9.7-4.366-9.7-9.7h-.6zM15 .7C9.334.7 4.7 5.334 4.7 11h.6c0-5.334 4.366-9.7 9.7-9.7V.7zM25.3 11C25.3 5.334 20.666.7 15 .7v.6c5.334 0 9.7 4.366 9.7 9.7h.6zM15 21.3c5.666 0 10.3-4.634 10.3-10.3h-.6c0 5.334-4.366 9.7-9.7 9.7v.6zM22.347 11c0 4.04-3.307 7.347-7.347 7.347v.6c4.372 0 7.947-3.575 7.947-7.947h-.6zM15 3.653c4.04 0 7.347 3.307 7.347 7.347h.6c0-4.372-3.575-7.947-7.947-7.947v.6zM7.653 11c0-4.04 3.307-7.347 7.347-7.347v-.6c-4.372 0-7.947 3.575-7.947 7.947h.6zM15 18.347c-4.04 0-7.347-3.307-7.347-7.347h-.6c0 4.372 3.575 7.947 7.947 7.947v-.6z"/><path fill-rule="evenodd" clip-rule="evenodd" d="M2.699 31c3.159-3.041 7.33-4.705 11.801-4.705 4.47 0 8.642 1.664 11.801 4.705L28 29.365C24.394 25.922 19.596 24 14.5 24S4.606 25.922 1 29.365L2.699 31z"/></symbol><symbol viewBox="0 0 40 40" id="phone" xmlns="http://www.w3.org/2000/svg"><path fill-rule="evenodd" clip-rule="evenodd" d="M19.986 40c11.038 0 19.986-8.954 19.986-20S31.024 0 19.986 0 0 8.954 0 20s8.948 20 19.986 20z"/><path fill-rule="evenodd" clip-rule="evenodd" d="M26.686 24.073l-2.162-2.167c-.43-.43-1.143-.417-1.589.03l-1.09 1.092-.214-.12c-.689-.383-1.63-.905-2.621-1.9-.994-.995-1.517-1.94-1.898-2.63l-.117-.211.73-.731.36-.361c.446-.448.459-1.162.029-1.593l-2.163-2.167c-.429-.431-1.142-.418-1.59.03l-.608.614.016.016a3.542 3.542 0 0 0-.501.888c-.118.31-.191.605-.224.9-.286 2.372.796 4.54 3.73 7.482 4.058 4.066 7.329 3.76 7.47 3.744a3.64 3.64 0 0 0 .9-.226c.322-.126.623-.297.883-.501l.013.012.618-.607c.444-.448.458-1.161.028-1.594z"/></symbol><symbol viewBox="0 0 10 9" id="play-button" xmlns="http://www.w3.org/2000/svg"><path fill-rule="evenodd" clip-rule="evenodd" d="M4.988 7.915l4.48-6.628a.233.233 0 0 0 .014-.236.223.223 0 0 0-.2-.122H.323a.222.222 0 0 0-.197.122.224.224 0 0 0-.025.106c0 .046.013.09.04.13l4.48 6.628a.221.221 0 0 0 .368 0z"/></symbol><symbol viewBox="0 0 31 32" id="post" xmlns="http://www.w3.org/2000/svg"><path fill-rule="evenodd" clip-rule="evenodd" d="M23.076 4.659L26.726 1l3.581 3.585-6.09 6.09v20.242H1V4.659h22.076zM1.807 30.112H23.41v-18.63l-6.996 6.995-5.681 1.766.093-.232H5.367a.405.405 0 1 1 0-.807h5.78l1.333-3.343H5.367a.405.405 0 1 1 0-.807h7.444l.096-.235L16 11.726H5.364a.405.405 0 1 1 0-.807h11.443l5.453-5.45H1.807v24.643zm14.18-12.346l-3.88 1.206 1.425-3.63 10.936-10.94 2.44 2.44-10.92 10.924zm10.74-15.622l-1.69 1.686 2.44 2.443 1.689-1.688-2.44-2.44z"/><path d="M26.726 1l.212-.212-.212-.213-.213.213.213.212zm-3.65 3.659v.3h.125l.088-.088-.213-.212zm7.231-.074l.212.212.212-.212-.212-.213-.212.213zm-6.09 6.09l-.212-.213-.087.088v.124h.3zm0 20.242v.3h.3v-.3h-.3zM1 30.916H.7v.3H1v-.3zM1 4.659v-.3H.7v.3H1zm22.41 25.453v.3h.3v-.3h-.3zm-21.603 0h-.3v.3h.3v-.3zm21.603-18.63h.3v-.725l-.512.512.212.212zm-6.996 6.995l.09.287.07-.022.053-.053-.213-.212zm-5.681 1.766l-.279-.111-.234.585.602-.187-.089-.287zm.093-.232l.278.112.165-.412h-.443v.3zm-5.459 0v-.3h-.013l-.013.002.026.298zm-.38-.19l-.256.157.256-.158zm0-.426l-.256-.157.256.157zm.38-.19l-.026.298.013.001h.013v-.3zm5.78 0v.3h.204l.075-.19-.279-.11zm1.333-3.344l.28.11.163-.41h-.443v.3zm-7.113 0v-.3h-.013l-.013.001.026.299zm-.38-.191l-.256.157.256-.157zm0-.425l-.256-.158.256.158zm.38-.191l-.026.298.013.002h.013v-.3zm7.444 0v.3h.202l.076-.187-.278-.113zm.096-.235l-.212-.213-.043.043-.023.056.278.114zM16 11.726l.212.212.512-.512H16v.3zm-10.636 0v-.3h-.026l.026.3zm-.38-.191l-.256.157.256-.157zm0-.425l-.256-.158.256.158zm.38-.191l-.026.298.013.002h.013v-.3zm11.443 0v.3h.124l.088-.088-.212-.212zm5.453-5.45l.212.212.512-.512h-.724v.3zm-20.453 0v-.3h-.3v.3h.3zm10.3 13.503l-.28-.11-.228.582.596-.185-.089-.287zm3.88-1.206l.09.287.07-.023.053-.052-.212-.212zm-2.455-2.425l-.212-.212-.044.044-.023.059.279.11zM24.468 4.402l.212-.212-.212-.212-.212.212.212.212zm2.44 2.44l.212.212.212-.212-.212-.212-.212.212zm-1.87-3.012l-.213-.212-.212.212.212.212.212-.212zm1.688-1.686l.212-.212-.212-.212-.212.212.212.212zm.751 4.13l-.212.211.212.213.212-.213-.212-.212zm1.689-1.69l.212.213.212-.212-.212-.213-.212.213zM26.513.789l-3.65 3.659.426.424 3.65-3.66-.426-.423zm4.006 3.584L26.938.788l-.424.424 3.581 3.585.424-.425zm-6.09 6.514l6.09-6.09-.424-.424-6.09 6.09.425.424zm.088 20.03V10.674h-.6v20.242h.6zM1 31.216h23.218v-.6H1v.6zM.7 4.66v26.258h.6V4.659H.7zm22.376-.3H1v.6h22.076v-.6zm.334 25.453H1.807v.6H23.41v-.6zm-.3-18.33v18.63h.6v-18.63h-.6zm-6.483 7.207l6.995-6.995-.424-.425-6.996 6.996.425.424zm-5.805 1.84l5.681-1.765-.178-.573-5.681 1.766.178.573zm-.275-.63l-.093.233.557.223.093-.232-.557-.223zm-5.18.412h5.459v-.6H5.367v.6zm-.636-.333c.14.227.397.355.662.332l-.052-.598a.105.105 0 0 1-.099-.05l-.51.316zm0-.74a.705.705 0 0 0 0 .74l.511-.315a.105.105 0 0 1 0-.11l-.51-.316zm.662-.333a.705.705 0 0 0-.662.332l.511.316a.105.105 0 0 1 .099-.05l.052-.598zm5.754 0h-5.78v.6h5.78v-.6zm1.055-3.155l-1.333 3.343.557.222 1.333-3.343-.557-.222zm-6.835.41h7.113v-.6H5.367v.6zm-.636-.333c.14.227.397.356.662.333l-.052-.598a.105.105 0 0 1-.099-.05l-.51.315zm0-.74a.705.705 0 0 0 0 .74l.511-.315a.105.105 0 0 1 0-.11l-.51-.315zm.662-.332a.705.705 0 0 0-.662.332l.511.315a.105.105 0 0 1 .099-.05l.052-.597zm7.418-.001H5.367v.6h7.444v-.6zm-.182-.049l-.095.235.555.227.096-.235-.556-.227zm3.159-3.191l-3.093 3.092.424.425 3.093-3.093-.424-.424zm-10.424.512H16v-.6H5.364v.6zm-.636-.334c.14.227.396.356.662.333l-.052-.598a.105.105 0 0 1-.099-.05l-.51.315zm0-.74a.705.705 0 0 0 0 .74l.511-.315a.105.105 0 0 1 0-.11l-.51-.315zm.662-.332a.705.705 0 0 0-.662.332l.511.315a.105.105 0 0 1 .099-.05l.052-.597zm11.417-.001H5.364v.6h11.443v-.6zm5.24-5.362l-5.452 5.45.424.424 5.453-5.45-.424-.424zm-20.24.512H22.26v-.6H1.807v.6zm.3 24.343V5.47h-.6v24.643h.6zM12.195 19.26l3.882-1.207-.178-.572-3.882 1.206.178.573zm1.058-4.027l-1.426 3.63.558.22 1.426-3.631-.558-.22zM24.256 4.19L13.32 15.13l.424.423L24.68 4.614l-.424-.424zm2.864 2.44l-2.44-2.44-.424.424 2.44 2.44.424-.424zM16.2 17.978L27.12 7.054l-.424-.424-10.92 10.924.424.424zm9.05-13.936l1.688-1.685-.424-.425-1.689 1.686.424.424zm2.44 2.02l-2.44-2.444-.425.424 2.44 2.443.425-.424zm1.264-1.69l-1.689 1.69.424.423 1.69-1.688-.425-.425zm-2.44-2.016l2.44 2.44.424-.424-2.44-2.44-.424.424z"/></symbol><symbol viewBox="0 0 16 16" id="search" xmlns="http://www.w3.org/2000/svg"><path fill-rule="evenodd" clip-rule="evenodd" d="M11.886 5.943a5.943 5.943 0 1 0-5.943 5.943c1.472 0 2.825-.54 3.867-1.427l.247.247v.723L14.63 16 16 14.629l-4.571-4.572h-.723l-.247-.247a5.957 5.957 0 0 0 1.427-3.867zm-10.057 0a4.097 4.097 0 0 1 4.114-4.114 4.097 4.097 0 0 1 4.114 4.114 4.097 4.097 0 0 1-4.114 4.114 4.097 4.097 0 0 1-4.114-4.114z"/></symbol><symbol viewBox="0 0 14 14" id="shape" xmlns="http://www.w3.org/2000/svg"><path fill-rule="evenodd" clip-rule="evenodd" d="M0 7c0-3.866 3.128-7 6.986-7 3.858 0 6.987 3.134 6.987 7s-3.129 7-6.987 7S0 10.866 0 7zm7.685.77h2.248a.714.714 0 0 0 0-1.43H7.685V4.25a.714.714 0 1 0-1.428 0v2.09H4.07a.715.715 0 0 0 0 1.43h2.189v2.355a.714.714 0 1 0 1.427 0V7.77z"/></symbol><symbol viewBox="0 0 26 25" id="standart" xmlns="http://www.w3.org/2000/svg"><g fill-rule="evenodd" clip-rule="evenodd" stroke-width=".8"><path d="M23.956 4.927v14.147a3.887 3.887 0 0 1-3.883 3.882H5.927a3.887 3.887 0 0 1-3.883-3.882V4.927a3.887 3.887 0 0 1 3.883-3.883h14.146V.216H5.927a4.716 4.716 0 0 0-4.71 4.71v14.148a4.716 4.716 0 0 0 4.71 4.71h14.146a4.716 4.716 0 0 0 4.71-4.71V4.927h-.827z"/><path d="M5.475 9.91l-.616.553 6.623 7.37 13.212-16.61-.648-.515-12.603 15.846L5.475 9.91z"/></g></symbol><symbol viewBox="0 0 30 30" id="star" xmlns="http://www.w3.org/2000/svg"><path fill-rule="evenodd" clip-rule="evenodd" d="M29.281 13.596a2.308 2.308 0 0 0 .542-2.302c-.255-.82-.916-1.406-1.733-1.528l-7.246-1.102a.958.958 0 0 1-.714-.542l-3.24-6.87C16.528.48 15.788 0 14.966 0c-.822 0-1.56.48-1.926 1.252L9.8 8.122a.95.95 0 0 1-.714.542L1.84 9.766c-.816.122-1.48.707-1.735 1.528a2.312 2.312 0 0 0 .544 2.302l5.244 5.345c.223.23.325.558.272.879l-1.238 7.55a2.283 2.283 0 0 0 .469 1.821c.641.797 1.756 1.039 2.648.546l6.48-3.564a.929.929 0 0 1 .883 0l6.482 3.564c.313.174.65.263.998.263.632 0 1.235-.294 1.648-.809a2.28 2.28 0 0 0 .468-1.821l-1.238-7.55c-.053-.321.05-.649.272-.879l5.244-5.345z"/><mask id="bga" maskUnits="userSpaceOnUse" x="0" y="0" width="30" height="30"><path fill-rule="evenodd" clip-rule="evenodd" d="M29.281 13.596a2.308 2.308 0 0 0 .542-2.302c-.255-.82-.916-1.406-1.733-1.528l-7.246-1.102a.958.958 0 0 1-.714-.542l-3.24-6.87C16.528.48 15.788 0 14.966 0c-.822 0-1.56.48-1.926 1.252L9.8 8.122a.95.95 0 0 1-.714.542L1.84 9.766c-.816.122-1.48.707-1.735 1.528a2.312 2.312 0 0 0 .544 2.302l5.244 5.345c.223.23.325.558.272.879l-1.238 7.55a2.283 2.283 0 0 0 .469 1.821c.641.797 1.756 1.039 2.648.546l6.48-3.564a.929.929 0 0 1 .883 0l6.482 3.564c.313.174.65.263.998.263.632 0 1.235-.294 1.648-.809a2.28 2.28 0 0 0 .468-1.821l-1.238-7.55c-.053-.321.05-.649.272-.879l5.244-5.345z"/></mask><g mask="url(#bga)"><path d="M30.974-5v50.376h-5.399V-5h5.399z"/></g></symbol><symbol viewBox="0 0 27 26" id="telegram" xmlns="http://www.w3.org/2000/svg"><g fill-rule="evenodd" clip-rule="evenodd"><path d="M13.702 26c7.018 0 12.708-5.82 12.708-13S20.72 0 13.702 0 .995 5.82.995 13s5.69 13 12.707 13z"/><path d="M26.41 13c0-.317-.012-.63-.034-.942L21.11 6.671 6.295 12.632l5.668 5.8.075.273.096-.1v.001l-.096.099 6.27 6.415c4.741-1.888 8.102-6.602 8.102-12.12z"/><path d="M12.469 14.894l5.742 4.436L21.11 6.67 6.295 12.633l4.508 1.528 8.227-5.646-6.562 6.38z"/><path d="M10.803 14.16l1.235 4.545.43-3.81 6.562-6.38-8.227 5.645z"/><path d="M14.335 16.336l-2.297 2.369.43-3.81 1.867 1.44z"/></g></symbol><symbol viewBox="0 0 25.6 25.6" id="toilet" xmlns="http://www.w3.org/2000/svg"><title>toilet</title><g data-name="noun Toilet 975132" stroke-linecap="round" stroke-linejoin="round" stroke-width="1.6"><path d="M23.2 15.2a4.8 4.8 0 0 1-4.8 4.8h-4.8v4.8h-8A4.8 4.8 0 0 0 .8 20v-3.2h4.8v-2.4H3.2A2.4 2.4 0 0 1 .8 12h22.4v3.2z"/><path data-name="Path 2" d="M13.6 20a4.8 4.8 0 0 1-4.8-4.8 4.8 4.8 0 0 0 4.8 4.8z"/><path data-name="Path 3" d="M.8 12V3.2A2.41 2.41 0 0 1 3.2.8h1.6a2.41 2.41 0 0 1 2.4 2.4V12z"/><path data-name="Path 4" d="M7.2 9.6h15.2a2.4 2.4 0 0 1 2.4 2.4H7.2z"/></g></symbol><symbol viewBox="0 0 27 26" id="twitter" xmlns="http://www.w3.org/2000/svg"><path d="M13.659 26c7.18 0 13-5.82 13-13s-5.82-13-13-13-13 5.82-13 13 5.82 13 13 13z"/><path fill-rule="evenodd" clip-rule="evenodd" d="M8.459 7.8h10.4c.715 0 1.3.585 1.3 1.3v7.8c0 .715-.585 1.3-1.3 1.3h-10.4c-.715 0-1.3-.585-1.3-1.3V9.1c0-.715.585-1.3 1.3-1.3zm5.2 5.85l5.2-3.25V9.1l-5.2 3.25-5.2-3.25v1.3l5.2 3.25z"/></symbol><symbol viewBox="0 0 27 26" id="twitter1" xmlns="http://www.w3.org/2000/svg"><g fill-rule="evenodd" clip-rule="evenodd"><path d="M13.57 25.815c7.13 0 12.91-5.779 12.91-12.908C26.48 5.78 20.7 0 13.57 0S.658 5.779.658 12.908c0 7.128 5.78 12.907 12.91 12.907z"/><path d="M21.477 9.276a6.158 6.158 0 0 1-1.772.485 3.094 3.094 0 0 0 1.357-1.706 6.179 6.179 0 0 1-1.96.748 3.086 3.086 0 0 0-5.259 2.814 8.76 8.76 0 0 1-6.36-3.223 3.085 3.085 0 0 0 .955 4.12 3.065 3.065 0 0 1-1.398-.387v.039a3.087 3.087 0 0 0 2.475 3.025 3.074 3.074 0 0 1-1.393.053 3.09 3.09 0 0 0 2.883 2.143 6.193 6.193 0 0 1-4.57 1.277 8.73 8.73 0 0 0 4.731 1.387c5.676 0 8.78-4.702 8.78-8.779 0-.134-.003-.267-.009-.399a6.257 6.257 0 0 0 1.54-1.597z"/></g></symbol><symbol viewBox="0 0 27 26" id="viber" xmlns="http://www.w3.org/2000/svg"><g fill-rule="evenodd" clip-rule="evenodd"><path d="M13.034 26c7.018 0 12.708-5.82 12.708-13S20.052 0 13.034 0 .327 5.82.327 13s5.69 13 12.707 13z"/><path d="M18.547 7.132c-3.093-.764-6.191-1.658-9.363-.523-2.054.788-2.054 3.064-1.968 4.99 0 .526-.6 1.226-.343 1.839.514 1.75.941 3.501 2.738 4.377.257.175 0 .525.172.788-.086 0-.257.087-.257.175 0 .42.184 1.061.062 1.475l5.46 5.584c5.614-.915 10.001-5.59 10.618-11.422l-7.119-7.283z"/><path d="M19.753 9.12l.004.017c.42 1.96.42 3.95 0 5.91l-.005.018c-.339 1.404-1.87 2.91-3.275 3.224l-.016.004a17.87 17.87 0 0 1-4.437.302l-1.552 1.651c-.385.41-1.06.13-1.06-.436v-1.568c-1.354-.395-2.77-1.833-3.096-3.177l-.004-.017a14.03 14.03 0 0 1 0-5.911l.004-.017c.34-1.405 1.87-2.911 3.276-3.225l.016-.003a17.803 17.803 0 0 1 6.853 0l.016.003c1.405.314 2.936 1.82 3.276 3.225zm-3.537 7.909c.923-.21 2.085-1.35 2.312-2.266.378-1.772.378-3.57 0-5.342-.226-.916-1.388-2.055-2.312-2.265a16.58 16.58 0 0 0-6.363 0c-.924.21-2.086 1.349-2.313 2.265a12.731 12.731 0 0 0 0 5.342c.227.916 1.39 2.055 2.313 2.266a.089.089 0 0 1 .071.087v2.597c0 .13.155.194.244.1l1.205-1.266 1.134-1.19a.085.085 0 0 1 .064-.027 16.595 16.595 0 0 0 3.645-.301z"/><path d="M15.043 15.962c-.142-.044-.277-.074-.403-.127-1.302-.553-2.5-1.266-3.45-2.359-.539-.621-.961-1.323-1.319-2.065-.169-.352-.312-.718-.457-1.082-.133-.331.063-.674.268-.924a2.15 2.15 0 0 1 .71-.546c.21-.103.418-.043.571.139.332.393.636.807.883 1.263.152.281.11.624-.165.815-.067.047-.128.101-.19.153a.631.631 0 0 0-.143.155.432.432 0 0 0-.028.372c.34.953.91 1.694 1.848 2.093.15.063.3.138.473.117.29-.034.383-.36.586-.529a.542.542 0 0 1 .665-.03c.214.139.42.287.627.437.202.147.403.291.589.46.18.16.24.373.14.591-.185.402-.454.736-.841.949-.11.06-.24.079-.364.118.124-.039-.142-.044 0 0zM13.038 8.4c1.703.05 3.102 1.206 3.402 2.928.05.294.069.594.092.892.01.125-.06.244-.192.246-.137.001-.198-.116-.207-.24-.018-.249-.03-.498-.063-.744-.177-1.297-1.188-2.371-2.451-2.602-.19-.034-.384-.043-.577-.064-.122-.013-.281-.02-.308-.175-.023-.13.085-.234.205-.24.033-.002.066 0 .099 0-.033 0 1.703.048 0 0z"/><path d="M15.626 11.833c-.003.022-.004.073-.017.121-.045.175-.304.197-.364.02a.538.538 0 0 1-.02-.168 2.15 2.15 0 0 0-.261-1.059 1.946 1.946 0 0 0-.808-.775 2.283 2.283 0 0 0-.644-.202c-.097-.017-.195-.026-.292-.04-.119-.017-.182-.094-.176-.213.005-.112.085-.192.204-.185.39.022.768.109 1.116.297.706.383 1.11.987 1.228 1.794.005.037.014.073.016.11.007.09.011.18.018.3-.007-.12-.003.022 0 0z"/><path d="M14.567 11.79c-.143.003-.219-.077-.234-.21-.01-.094-.018-.188-.04-.28a.785.785 0 0 0-.282-.453.733.733 0 0 0-.23-.113c-.105-.031-.213-.023-.318-.049-.113-.028-.175-.122-.158-.23a.206.206 0 0 1 .216-.169c.66.049 1.132.398 1.2 1.193a.569.569 0 0 1-.002.17c-.02.091-.087.137-.152.142.065-.005-.143.002 0 0z"/><path d="M19.757 9.137l-.005-.017c-.19-.788-.755-1.607-1.462-2.23l-.956.866c.569.464 1.056 1.106 1.194 1.665.379 1.773.379 3.57 0 5.342-.226.916-1.389 2.055-2.312 2.266a16.595 16.595 0 0 1-3.645.301.085.085 0 0 0-.064.027l-1.134 1.19-1.205 1.266c-.089.094-.243.03-.243-.1v-2.597a.089.089 0 0 0-.072-.087c-.525-.12-1.127-.54-1.59-1.047l-.945.856c.59.656 1.351 1.187 2.093 1.404v1.568c0 .567.676.846 1.06.436l1.553-1.65a17.654 17.654 0 0 0 4.437-.303l.015-.003c1.406-.314 2.937-1.82 3.276-3.225l.005-.017c.42-1.961.42-3.95 0-5.911z"/><path d="M15.056 16.002c.16-.077-.185-.087 0 0z"/><path d="M16.108 14.303c-.186-.168-.388-.312-.59-.459a13.75 13.75 0 0 0-.626-.437.542.542 0 0 0-.665.03c-.203.17-.296.495-.586.53-.173.02-.323-.055-.473-.119a3.076 3.076 0 0 1-1.345-1.094l-.703.637.07.085c.95 1.093 2.148 1.806 3.45 2.359.126.053.261.083.403.127-.142-.044.124-.039 0 0 .124-.039.254-.059.364-.119.388-.213.656-.546.84-.948.102-.219.04-.43-.139-.592zM13.07 8.805h-.009c-.003-.002.001 0 .009 0zm-.032-.002l.004.001c.095.023 1.632.307-.004 0z"/><g><path d="M15.48 9.437l-.299.272c.471.469.796 1.09.889 1.773.033.246.045.495.063.743.009.125.07.242.207.24.132-.001.201-.12.192-.245-.023-.298-.041-.598-.093-.892a3.525 3.525 0 0 0-.958-1.891zm.112 1.986c-.086-.588-.325-1.068-.72-1.434l-.3.271c.155.14.289.306.392.487.182.321.26.69.26 1.059 0 .056.003.116.021.168.06.177.32.155.364-.02.013-.048.014-.1.017-.121-.003.022-.007-.12 0 0-.007-.12-.011-.21-.018-.3-.002-.038-.01-.074-.016-.11z"/></g><g><path d="M15.653 12.403c-.014-.784-.006.143 0 0zm-1.055-.276c.004-.002.009-.01.013-.01a.428.428 0 0 0-.05.002c.013.002.024.008.037.008z"/><path d="M14.616 12.127c-.013 0-.024-.006-.036-.008-.06.006-.122.017.036.008z"/><path d="M14.598 12.116c-.004.002-.008.01-.013.01.034-.007.031-.01.013-.01z"/></g><path d="M14.266 10.538l-.304.276a.785.785 0 0 1 .332.487c.021.09.03.185.04.278.014.128.084.206.215.21h.024c.063-.007.126-.052.146-.14a.57.57 0 0 0 .002-.17c-.038-.444-.202-.75-.455-.94z"/></g></symbol><symbol viewBox="0 0 26 26" id="vk" xmlns="http://www.w3.org/2000/svg"><g fill-rule="evenodd" clip-rule="evenodd"><path d="M12.91 25.815c7.13 0 12.91-5.779 12.91-12.908C25.82 5.78 20.04 0 12.91 0S0 5.779 0 12.908c0 7.128 5.78 12.907 12.91 12.907z"/><path d="M12.423 18.569h1.013s.306-.034.462-.202c.144-.155.14-.445.14-.445s-.02-1.36.61-1.56c.623-.197 1.422 1.314 2.268 1.895.64.44 1.127.343 1.127.343l2.264-.031s1.184-.073.623-1.004c-.046-.076-.327-.689-1.683-1.948-1.42-1.317-1.23-1.104.48-3.382 1.041-1.388 1.458-2.235 1.328-2.598-.124-.346-.89-.254-.89-.254l-2.55.016s-.188-.026-.328.058c-.137.082-.225.273-.225.273s-.404 1.074-.942 1.987c-1.135 1.927-1.589 2.029-1.774 1.91-.432-.28-.324-1.121-.324-1.719 0-1.867.283-2.646-.552-2.847-.277-.067-.48-.111-1.19-.119-.909-.01-1.679.003-2.114.217-.29.142-.514.458-.378.476.169.023.55.103.752.378.262.356.252 1.154.252 1.154s.15 2.198-.35 2.471c-.344.187-.815-.195-1.827-1.943a16.25 16.25 0 0 1-.91-1.886s-.075-.185-.21-.284a1.056 1.056 0 0 0-.392-.158l-2.422.016s-.364.01-.497.168c-.119.141-.01.432-.01.432s1.897 4.435 4.044 6.67c1.969 2.05 4.205 1.916 4.205 1.916z"/></g></symbol></svg>